<?xml version="1.0" encoding="utf-8"?>
<!-- Generator: Adobe Illustrator 19.0.0, SVG Export Plug-In . SVG Version: 6.00 Build 0)  -->
<svg version="1.1" id="Layer_1" xmlns="http://www.w3.org/2000/svg" xmlns:xlink="http://www.w3.org/1999/xlink" x="0px" y="0px"
	 viewBox="0 0 680 485" enable-background="new 0 0 680 485" xml:space="preserve">
<g>
	<path fill="#C6C5C5" d="M165.9,260.6l9.4-13.7c2.7,0.4,5.4,0.6,8.1,0.6c2.8,0,5.5-0.2,8.1-0.6l9.4,13.7c2.9-0.7,5.7-1.7,8.4-2.7
		l-0.5-16.6c4.9-2.5,9.3-5.8,13.1-9.6l15.7,5.6c1.9-2.3,3.6-4.7,5.2-7.2l-10.1-13.2c2.4-4.8,4.1-10,5-15.4l15.9-4.7
		c0.1-1.5,0.1-3,0.1-4.5c0-1.5,0-3-0.1-4.4l-15.9-4.7c-0.9-5.5-2.6-10.7-5-15.5l10.1-13.2c-1.6-2.5-3.3-4.9-5.2-7.2l-15.7,5.6
		c-3.9-3.8-8.3-7-13.1-9.6l0.5-16.6c-2.7-1.1-5.5-2-8.4-2.7l-9.4,13.7c-2.7-0.4-5.4-0.6-8.1-0.6c-2.8,0-5.5,0.2-8.1,0.6l-9.4-13.7
		c-2.9,0.7-5.7,1.7-8.4,2.7l0.5,16.6c-4.8,2.5-9.3,5.8-13.1,9.6l-15.7-5.6c-1.9,2.3-3.6,4.7-5.2,7.2l10.1,13.2
		c-2.4,4.8-4.1,10-5,15.5l-15.9,4.7c-0.1,1.5-0.1,2.9-0.1,4.4c0,1.5,0,3,0.1,4.5l15.9,4.7c0.9,5.5,2.6,10.7,5,15.4l-10.1,13.2
		c1.6,2.5,3.3,4.9,5.2,7.2l15.7-5.6c3.9,3.8,8.3,7,13.1,9.6l-0.5,16.6C160.2,259,163,259.9,165.9,260.6z M138,192.3
		c0-25,20.4-45.4,45.4-45.4c25.1,0,45.4,20.4,45.4,45.4c0,25.1-20.4,45.5-45.4,45.5C158.4,237.8,138,217.4,138,192.3z M219,78.1
		c0.9,5.5,2.6,10.7,5,15.4l-10.1,13.2c1.6,2.5,3.3,4.9,5.2,7.2l15.7-5.6c3.9,3.8,8.3,7,13.1,9.6l-0.5,16.6c2.7,1.1,5.5,2,8.4,2.7
		l9.4-13.7c2.7,0.4,5.4,0.6,8.1,0.6c2.8,0,5.5-0.2,8.1-0.6l9.4,13.7c2.9-0.7,5.7-1.7,8.4-2.7l-0.5-16.6c4.8-2.5,9.3-5.8,13.1-9.6
		l15.7,5.6c1.9-2.3,3.6-4.7,5.2-7.2l-10.1-13.2c2.4-4.8,4.1-10,5-15.4l15.9-4.7c0.1-1.5,0.1-3,0.1-4.5c0-1.5,0-3-0.1-4.4l-15.9-4.7
		c-0.9-5.5-2.6-10.7-5-15.5l10.1-13.2c-1.6-2.5-3.3-4.9-5.2-7.2L312,29.7c-3.9-3.8-8.3-7-13.1-9.6l0.5-16.6c-2.7-1.1-5.5-2-8.4-2.7
		l-9.4,13.7c-2.7-0.4-5.4-0.6-8.1-0.6c-2.8,0-5.5,0.2-8.1,0.6l-9.4-13.7c-2.9,0.7-5.7,1.7-8.4,2.7l0.5,16.6
		c-4.8,2.5-9.3,5.8-13.1,9.6l-15.7-5.6c-1.9,2.3-3.6,4.7-5.2,7.2l10.1,13.2c-2.4,4.8-4.1,10-5,15.5l-15.9,4.7
		C203,66,203,67.5,203,69c0,1.5,0,3,0.1,4.5L219,78.1z M273.4,23.6c25.1,0,45.4,20.4,45.4,45.4c0,25.1-20.4,45.5-45.4,45.5
		c-25.1,0-45.4-20.4-45.4-45.5C228,44,248.4,23.6,273.4,23.6z M283.2,329.2c-0.9-5.5-2.6-10.7-5-15.5l10.1-13.2
		c-1.6-2.5-3.3-4.9-5.2-7.2l-15.6,5.6c-3.9-3.8-8.3-7-13.1-9.6l0.5-16.6c-2.7-1.1-5.5-2-8.4-2.7l-9.4,13.7c-2.7-0.4-5.4-0.6-8.1-0.6
		c-2.8,0-5.5,0.2-8.1,0.6l-9.4-13.7c-2.9,0.7-5.7,1.7-8.4,2.7l0.5,16.6c-4.8,2.5-9.3,5.8-13.1,9.6l-15.7-5.6
		c-1.9,2.3-3.6,4.7-5.2,7.2l10.1,13.2c-2.4,4.8-4.1,10-5,15.5l-15.9,4.7c-0.1,1.5-0.1,2.9-0.1,4.4c0,1.5,0,3,0.1,4.5l15.9,4.7
		c0.9,5.5,2.6,10.7,5,15.4l-10.1,13.2c1.6,2.5,3.3,4.9,5.2,7.2l15.7-5.6c3.9,3.8,8.3,7,13.1,9.6l-0.5,16.6c2.7,1.1,5.5,2,8.4,2.7
		l9.4-13.7c2.7,0.4,5.4,0.6,8.1,0.6c2.8,0,5.5-0.2,8.1-0.6l9.4,13.7c2.9-0.7,5.7-1.7,8.4-2.7l-0.5-16.6c4.9-2.5,9.3-5.8,13.1-9.6
		l15.6,5.6c1.9-2.3,3.6-4.7,5.2-7.2l-10.1-13.2c2.4-4.8,4.1-10,5-15.4l15.9-4.7c0.1-1.5,0.1-3,0.1-4.5c0-1.5,0-3-0.1-4.4
		L283.2,329.2z M228.8,383.8c-25.1,0-45.4-20.4-45.4-45.5c0-25,20.4-45.4,45.4-45.4c25.1,0,45.4,20.4,45.4,45.4
		C274.3,363.4,253.9,383.8,228.8,383.8z M428.5,378.5c-0.9-5.5-2.6-10.7-5-15.5l10.1-13.2c-1.6-2.5-3.3-4.9-5.2-7.2l-15.7,5.6
		c-3.9-3.8-8.3-7-13.1-9.6l0.5-16.6c-2.7-1.1-5.5-2-8.4-2.7l-9.4,13.7c-2.7-0.4-5.4-0.6-8.1-0.6c-2.8,0-5.5,0.2-8.1,0.6l-9.4-13.7
		c-2.9,0.7-5.7,1.7-8.4,2.7l0.5,16.6c-4.8,2.5-9.3,5.8-13.1,9.6l-15.7-5.6c-1.9,2.3-3.6,4.7-5.2,7.2l10.1,13.2
		c-2.4,4.8-4.1,10-5,15.5l-15.9,4.7c-0.1,1.5-0.1,2.9-0.1,4.4c0,1.5,0,3,0.1,4.5l15.9,4.7c0.9,5.5,2.6,10.7,5,15.4l-10.1,13.2
		c1.6,2.5,3.3,4.9,5.2,7.2l15.7-5.6c3.9,3.8,8.3,7,13.1,9.6l-0.5,16.6c2.7,1.1,5.5,2,8.4,2.7l9.4-13.7c2.7,0.4,5.4,0.6,8.1,0.6
		c2.8,0,5.5-0.2,8.1-0.6l9.4,13.7c2.9-0.7,5.7-1.7,8.4-2.7l-0.5-16.6c4.9-2.5,9.3-5.8,13.1-9.6l15.7,5.6c1.9-2.3,3.6-4.7,5.2-7.2
		l-10.1-13.2c2.4-4.8,4.1-10,5-15.4l15.9-4.7c0.1-1.5,0.2-3,0.2-4.5c0-1.5,0-3-0.2-4.4L428.5,378.5z M374.1,433.1
		c-25.1,0-45.4-20.4-45.4-45.5c0-25,20.4-45.4,45.4-45.4c25.1,0,45.4,20.4,45.4,45.4C419.6,412.7,399.2,433.1,374.1,433.1z
		 M553.1,294.3c-0.9-5.5-2.6-10.7-5-15.5l10.1-13.2c-1.6-2.5-3.3-4.9-5.2-7.2l-15.7,5.6c-3.9-3.8-8.3-7-13.1-9.6l0.5-16.6
		c-2.7-1.1-5.5-2-8.4-2.7l-9.4,13.7c-2.7-0.4-5.4-0.6-8.1-0.6c-2.8,0-5.5,0.2-8.1,0.6l-9.4-13.7c-2.9,0.7-5.7,1.7-8.4,2.7l0.5,16.6
		c-4.8,2.5-9.3,5.8-13.1,9.6l-15.7-5.6c-1.9,2.3-3.6,4.7-5.2,7.2l10.1,13.2c-2.4,4.8-4.1,10-5,15.5l-15.9,4.7
		c-0.1,1.5-0.1,2.9-0.1,4.4c0,1.5,0,3,0.1,4.5l15.9,4.7c0.9,5.5,2.6,10.7,5,15.4l-10.1,13.2c1.6,2.5,3.3,4.9,5.2,7.2l15.7-5.6
		c3.9,3.8,8.3,7,13.1,9.6l-0.5,16.6c2.7,1.1,5.5,2,8.4,2.7l9.4-13.7c2.7,0.4,5.4,0.6,8.1,0.6c2.8,0,5.5-0.2,8.1-0.6l9.4,13.7
		c2.9-0.7,5.7-1.7,8.4-2.7l-0.5-16.6c4.8-2.5,9.3-5.8,13.1-9.6l15.7,5.6c1.9-2.3,3.6-4.7,5.2-7.2L548.1,328c2.4-4.8,4.1-10,5-15.4
		l15.9-4.7c0.1-1.5,0.2-3,0.2-4.5c0-1.5,0-3-0.2-4.4L553.1,294.3z M498.7,348.9c-25.1,0-45.4-20.4-45.4-45.5
		c0-25,20.4-45.4,45.4-45.4c25.1,0,45.4,20.4,45.4,45.4C544.2,328.5,523.8,348.9,498.7,348.9z M571.2,130.4l-15.9-4.7
		c-0.9-5.5-2.6-10.7-5-15.5l10.1-13.2c-1.6-2.5-3.3-4.9-5.2-7.2l-15.7,5.6c-3.9-3.8-8.3-7-13.1-9.6l0.5-16.6c-2.7-1.1-5.5-2-8.4-2.7
		L509,80.3c-2.7-0.4-5.4-0.6-8.1-0.6c-2.8,0-5.5,0.2-8.1,0.6l-9.4-13.7c-2.9,0.7-5.7,1.7-8.4,2.7l0.5,16.6
		c-4.8,2.5-9.3,5.8-13.1,9.6l-15.7-5.6c-1.9,2.3-3.6,4.7-5.2,7.2l10.1,13.2c-2.4,4.8-4.1,10-5,15.5l-15.9,4.7
		c-0.1,1.5-0.1,2.9-0.1,4.4c0,1.5,0,3,0.1,4.5l15.9,4.7c0.9,5.5,2.6,10.7,5,15.4l-10.1,13.2c1.6,2.5,3.3,4.9,5.2,7.2l15.7-5.6
		c3.9,3.8,8.3,7,13.1,9.6l-0.5,16.6c2.7,1.1,5.5,2,8.4,2.7l9.4-13.7c2.7,0.4,5.4,0.6,8.1,0.6c2.8,0,5.5-0.2,8.1-0.6l9.4,13.7
		c2.9-0.7,5.7-1.7,8.4-2.7l-0.5-16.6c4.8-2.5,9.3-5.8,13.1-9.6l15.7,5.6c1.9-2.3,3.6-4.7,5.2-7.2l-10.1-13.2c2.4-4.8,4.1-10,5-15.4
		l15.9-4.7c0.1-1.5,0.2-3,0.2-4.5C571.4,133.4,571.3,131.9,571.2,130.4z M500.9,180.3c-25.1,0-45.4-20.4-45.4-45.5
		c0-25,20.4-45.4,45.4-45.4c25.1,0,45.4,20.4,45.4,45.4C546.4,159.9,526,180.3,500.9,180.3z M324.3,116.7c-4.2,1.1-8.3,2.4-12.3,4
		l0.7,24.3c-7.1,3.7-13.5,8.4-19.2,14l-22.9-8.1c-2.8,3.3-5.3,6.8-7.6,10.5l14.8,19.2c-3.5,7-6,14.6-7.3,22.6l-23.3,6.9
		c-0.1,2.1-0.2,4.3-0.2,6.5c0,2.2,0.1,4.4,0.2,6.5l23.3,6.9c1.3,8,3.8,15.6,7.3,22.6l-14.8,19.2c2.3,3.7,4.9,7.2,7.6,10.5l22.9-8.1
		c5.6,5.6,12.1,10.3,19.2,14l-0.7,24.3c4,1.6,8.1,2.9,12.3,4l13.7-20c3.9,0.6,7.8,0.9,11.9,0.9c4,0,8-0.3,11.9-0.9l13.7,20
		c4.2-1.1,8.3-2.4,12.3-4l-0.7-24.3c7.1-3.7,13.5-8.4,19.2-14l22.9,8.1c2.8-3.3,5.3-6.8,7.6-10.5L422,252.3c3.5-7,6-14.6,7.3-22.6
		l23.3-6.9c0.1-2.2,0.2-4.3,0.2-6.5c0-2.2-0.1-4.3-0.2-6.5l-23.3-6.9c-1.3-8-3.8-15.6-7.3-22.6l14.8-19.2c-2.3-3.7-4.9-7.2-7.6-10.5
		l-22.9,8.1c-5.6-5.5-12.1-10.3-19.2-14l0.7-24.3c-4-1.6-8.1-2.9-12.3-4l-13.7,20c-3.9-0.6-7.8-0.9-11.9-0.9c-4,0-8,0.3-11.9,0.9
		L324.3,116.7z M416.3,216.4c0,36.6-29.8,66.4-66.4,66.4c-36.6,0-66.4-29.8-66.4-66.4c0-36.6,29.8-66.4,66.4-66.4
		C386.5,150,416.3,179.8,416.3,216.4z"/>
	<path fill="#DB3B40" d="M340.4,40.3c-0.5-0.5-0.8-1.3-0.8-2.2v-6.9h2.5v5.9c0,1.2,0.6,1.8,1.8,1.8c0.9,0,1.6-0.4,2.2-1.1v-6.5h2.5
		v9.7h-2.5v-1.2c-0.9,1-2,1.5-3.4,1.5C341.7,41.1,340.9,40.8,340.4,40.3z M356,38.5c-0.2,0.2-0.5,0.3-0.9,0.3
		c-0.3,0-0.5-0.1-0.7-0.3c-0.2-0.2-0.2-0.5-0.2-0.8v-4.3h2v-2.2h-2v-2.6h-2.5v2.6h-1.6v2.2h1.6v5c0,1.8,0.9,2.7,2.7,2.7
		c0.9,0,1.7-0.2,2.1-0.6L356,38.5z M357.9,40.9h2.5v-9.7h-2.5V40.9z M359.2,30.2c0.4,0,0.8-0.2,1.1-0.5c0.3-0.3,0.4-0.7,0.4-1.1
		c0-0.4-0.1-0.8-0.4-1.1c-0.3-0.3-0.7-0.4-1.1-0.4c-0.4,0-0.8,0.1-1.1,0.4c-0.3,0.3-0.4,0.6-0.4,1.1c0,0.4,0.1,0.8,0.4,1.1
		C358.4,30,358.8,30.2,359.2,30.2z M363,40.9h2.5V27.5H363V40.9z M368,40.9h2.5v-9.7H368V40.9z M369.3,30.2c0.4,0,0.8-0.2,1.1-0.5
		c0.3-0.3,0.4-0.7,0.4-1.1c0-0.4-0.1-0.8-0.4-1.1c-0.3-0.3-0.7-0.4-1.1-0.4c-0.4,0-0.8,0.1-1.1,0.4c-0.3,0.3-0.4,0.6-0.4,1.1
		c0,0.4,0.1,0.8,0.4,1.1C368.5,30,368.9,30.2,369.3,30.2z M380.6,38.6h-4.5l4.4-5.6v-1.8h-7.8v2.2h4.4l-4.4,5.5v1.9h7.9V38.6z
		 M388.5,40.9v-1c-0.7,0.8-1.7,1.3-3.1,1.3c-0.9,0-1.6-0.3-2.3-0.8c-0.7-0.6-1-1.4-1-2.4c0-1.1,0.3-1.8,1-2.3
		c0.7-0.5,1.4-0.8,2.3-0.8c1.4,0,2.4,0.4,3.1,1.2v-1.2c0-0.5-0.2-0.9-0.6-1.2c-0.4-0.3-0.9-0.4-1.5-0.4c-1,0-2,0.4-2.8,1.1l-1-1.8
		c1.1-1,2.5-1.5,4.2-1.5c1.2,0,2.3,0.3,3,0.9c0.8,0.6,1.2,1.5,1.2,2.8v6.2H388.5z M388.5,38.5v-1.2c-0.4-0.6-1.1-0.9-2-0.9
		c-0.5,0-1,0.1-1.3,0.4c-0.3,0.3-0.5,0.6-0.5,1.1c0,0.4,0.2,0.8,0.5,1c0.3,0.3,0.8,0.4,1.3,0.4C387.4,39.4,388.1,39.1,388.5,38.5z
		 M394.1,38.4c0,1.8,0.9,2.7,2.7,2.7c0.9,0,1.7-0.2,2.1-0.6l-0.5-1.9c-0.2,0.2-0.5,0.3-0.9,0.3c-0.3,0-0.5-0.1-0.7-0.3
		c-0.2-0.2-0.2-0.5-0.2-0.8v-4.3h2v-2.2h-2v-2.6h-2.5v2.6h-1.6v2.2h1.6V38.4z M402.8,31.2h-2.5v9.7h2.5V31.2z M401.6,30.2
		c0.4,0,0.8-0.2,1.1-0.5c0.3-0.3,0.4-0.7,0.4-1.1c0-0.4-0.1-0.8-0.4-1.1c-0.3-0.3-0.7-0.4-1.1-0.4c-0.4,0-0.8,0.1-1.1,0.4
		c-0.3,0.3-0.4,0.6-0.4,1.1c0,0.4,0.1,0.8,0.4,1.1C400.8,30,401.1,30.2,401.6,30.2z M406.1,39.6c-0.9-1-1.4-2.2-1.4-3.6
		c0-1.4,0.5-2.6,1.4-3.6c0.9-1,2.2-1.5,3.7-1.5c1.5,0,2.8,0.5,3.7,1.5c0.9,1,1.4,2.2,1.4,3.6c0,1.4-0.5,2.6-1.4,3.6
		c-0.9,1-2.2,1.5-3.7,1.5C408.3,41.1,407.1,40.6,406.1,39.6z M407.4,36c0,0.8,0.2,1.5,0.7,2c0.4,0.5,1,0.8,1.8,0.8
		c0.8,0,1.4-0.3,1.8-0.8c0.4-0.5,0.7-1.2,0.7-2c0-0.8-0.2-1.4-0.7-2c-0.4-0.5-1-0.8-1.8-0.8c-0.8,0-1.4,0.3-1.8,0.8
		C407.6,34.6,407.4,35.2,407.4,36z M419.4,34.3c0.6-0.7,1.3-1.1,2.2-1.1c1.2,0,1.8,0.6,1.8,1.8v5.8h2.6V34c0-1-0.3-1.7-0.8-2.3
		c-0.5-0.5-1.3-0.8-2.4-0.8c-0.7,0-1.4,0.1-2,0.4c-0.6,0.3-1.1,0.6-1.4,1v-1.2h-2.5v9.7h2.5V34.3z M353.4,47.9
		c0.5,0.5,0.7,1.2,0.7,2.2v7h-2.6V51c0-1-0.5-1.5-1.4-1.5c-0.4,0-0.8,0.1-1.2,0.3c-0.4,0.2-0.6,0.5-0.8,0.8v6.5h-2.6V51
		c0-1-0.5-1.5-1.4-1.5c-0.8,0-1.5,0.4-2,1.1v6.5h-2.5v-9.7h2.5v1.2c0.3-0.3,0.7-0.7,1.3-1c0.6-0.3,1.2-0.5,1.9-0.5
		c1.4,0,2.3,0.6,2.7,1.7c0.3-0.5,0.8-0.9,1.4-1.2c0.6-0.3,1.3-0.5,2-0.5C352.2,47.2,352.9,47.5,353.4,47.9z M365,50.9v6.2h-2.6v-1
		c-0.7,0.8-1.7,1.3-3.1,1.3c-0.9,0-1.6-0.3-2.3-0.9c-0.7-0.6-1-1.3-1-2.3c0-1.1,0.3-1.8,1-2.4c0.7-0.5,1.4-0.8,2.3-0.8
		c1.4,0,2.4,0.4,3.1,1.2V51c0-0.5-0.2-0.9-0.6-1.2c-0.4-0.3-0.9-0.4-1.5-0.4c-1,0-2,0.4-2.8,1.1l-1-1.8c1.1-1,2.5-1.5,4.2-1.5
		c1.2,0,2.3,0.3,3,0.9C364.6,48.6,365,49.6,365,50.9z M362.4,53.6c-0.4-0.6-1.1-0.9-2-0.9c-0.5,0-1,0.1-1.3,0.4
		c-0.3,0.3-0.5,0.6-0.5,1.1c0,0.4,0.2,0.8,0.5,1c0.3,0.3,0.8,0.4,1.3,0.4c0.9,0,1.6-0.3,2-0.8V53.6z M373.4,47.2
		c-0.7,0-1.4,0.1-2,0.4c-0.6,0.3-1.1,0.6-1.4,1v-1.2h-2.5v9.7h2.5v-6.5c0.6-0.7,1.3-1.1,2.2-1.1c1.2,0,1.8,0.6,1.8,1.8v5.8h2.6v-6.8
		c0-1-0.3-1.7-0.8-2.3C375.2,47.5,374.5,47.2,373.4,47.2z M387.4,50.9v6.2h-2.6v-1c-0.7,0.8-1.7,1.3-3.1,1.3c-0.9,0-1.6-0.3-2.3-0.9
		c-0.7-0.6-1-1.3-1-2.3c0-1.1,0.3-1.8,1-2.4c0.7-0.5,1.4-0.8,2.3-0.8c1.4,0,2.4,0.4,3.1,1.2V51c0-0.5-0.2-0.9-0.6-1.2
		c-0.4-0.3-0.9-0.4-1.5-0.4c-1,0-2,0.4-2.8,1.1l-1-1.8c1.1-1,2.5-1.5,4.2-1.5c1.2,0,2.3,0.3,3,0.9C387,48.6,387.4,49.6,387.4,50.9z
		 M384.9,53.6c-0.4-0.6-1.1-0.9-2-0.9c-0.5,0-1,0.1-1.3,0.4c-0.3,0.3-0.5,0.6-0.5,1.1c0,0.4,0.2,0.8,0.5,1c0.3,0.3,0.8,0.4,1.3,0.4
		c0.9,0,1.6-0.3,2-0.8V53.6z M396.6,47.5h2.5v9c0,0.9-0.2,1.6-0.5,2.2c-0.3,0.6-0.7,1.1-1.3,1.4s-1.1,0.5-1.6,0.7
		c-0.6,0.1-1.2,0.2-1.8,0.2c-1.7,0-3.1-0.5-4.2-1.4l1.1-1.8c0.7,0.8,1.7,1.2,3,1.2c0.7,0,1.4-0.2,1.9-0.6c0.5-0.4,0.8-1,0.8-1.9
		v-0.9c-0.8,1-1.8,1.5-3,1.5c-1.3,0-2.3-0.4-3.1-1.3c-0.8-0.9-1.2-2.1-1.2-3.6c0-1.5,0.4-2.8,1.2-3.6c0.8-0.9,1.8-1.3,3.1-1.3
		c1.2,0,2.2,0.5,3,1.5V47.5z M396.6,50.6c-0.2-0.3-0.5-0.6-0.9-0.8c-0.4-0.2-0.8-0.3-1.2-0.3c-0.7,0-1.3,0.2-1.8,0.7
		c-0.5,0.5-0.7,1.1-0.7,1.9c0,0.8,0.2,1.5,0.7,2c0.5,0.5,1,0.7,1.8,0.7c0.4,0,0.8-0.1,1.2-0.3c0.4-0.2,0.7-0.5,1-0.8V50.6z
		 M409.5,48.7c0.9,1,1.3,2.3,1.3,3.8v0.6h-7.2c0.1,0.6,0.4,1.1,0.9,1.5c0.5,0.4,1.1,0.6,1.9,0.6c0.4,0,0.9-0.1,1.4-0.3
		c0.5-0.2,0.9-0.4,1.2-0.7l1.1,1.7c-1,0.9-2.3,1.3-4,1.3c-1.5,0-2.7-0.5-3.7-1.4c-1-0.9-1.5-2.2-1.5-3.7c0-1.4,0.5-2.6,1.4-3.6
		c0.9-1,2.1-1.5,3.6-1.5C407.5,47.2,408.6,47.7,409.5,48.7z M408.4,51.4c-0.1-0.5-0.3-1-0.7-1.4c-0.4-0.4-1-0.6-1.7-0.6
		c-0.7,0-1.3,0.2-1.7,0.6c-0.4,0.4-0.6,0.9-0.7,1.5H408.4z M424.4,47.2c-0.7,0-1.3,0.2-2,0.5c-0.6,0.3-1.1,0.8-1.4,1.2
		c-0.4-1.2-1.3-1.7-2.7-1.7c-0.7,0-1.3,0.2-1.9,0.5c-0.6,0.3-1,0.7-1.3,1v-1.2h-2.5v9.7h2.5v-6.5c0.5-0.7,1.2-1.1,2-1.1
		c1,0,1.4,0.5,1.4,1.5v6.1h2.6v-6.5c0.2-0.3,0.5-0.6,0.8-0.8c0.4-0.2,0.7-0.3,1.2-0.3c1,0,1.4,0.5,1.4,1.5v6.1h2.6v-7
		c0-1-0.2-1.7-0.7-2.2C426,47.5,425.3,47.2,424.4,47.2z M437.6,48.7c0.9,1,1.3,2.3,1.3,3.8v0.6h-7.2c0.1,0.6,0.4,1.1,0.9,1.5
		c0.5,0.4,1.1,0.6,1.9,0.6c0.4,0,0.9-0.1,1.4-0.3c0.5-0.2,0.9-0.4,1.2-0.7l1.1,1.7c-1,0.9-2.3,1.3-4,1.3c-1.5,0-2.7-0.5-3.7-1.4
		c-1-0.9-1.5-2.2-1.5-3.7c0-1.4,0.5-2.6,1.4-3.6c0.9-1,2.1-1.5,3.6-1.5C435.6,47.2,436.7,47.7,437.6,48.7z M436.5,51.4
		c-0.1-0.5-0.3-1-0.7-1.4c-0.4-0.4-1-0.6-1.7-0.6c-0.7,0-1.3,0.2-1.7,0.6c-0.4,0.4-0.6,0.9-0.7,1.5H436.5z M446.7,47.2
		c-0.7,0-1.4,0.1-2,0.4c-0.6,0.3-1.1,0.6-1.4,1v-1.2h-2.5v9.7h2.5v-6.5c0.6-0.7,1.3-1.1,2.2-1.1c1.2,0,1.8,0.6,1.8,1.8v5.8h2.6v-6.8
		c0-1-0.3-1.7-0.8-2.3C448.6,47.5,447.8,47.2,446.7,47.2z M452.9,54.7c0,1.8,0.9,2.7,2.7,2.7c0.9,0,1.7-0.2,2.1-0.6l-0.5-1.9
		c-0.2,0.2-0.5,0.3-0.9,0.3c-0.3,0-0.5-0.1-0.7-0.3s-0.2-0.5-0.2-0.8v-4.3h2v-2.2h-2v-2.6h-2.5v2.6h-1.6v2.2h1.6V54.7z M318.7,69.1
		c0-25-20.3-45.3-45.3-45.3c-25,0-45.3,20.3-45.3,45.3c0,25,20.3,45.3,45.3,45.3C298.4,114.4,318.7,94.1,318.7,69.1z M276,54.4
		c0.5-0.4,1.3-0.4,1.7,0.2c0.4,0.5,0.4,1.3-0.2,1.7c-6.3,5.2-8.4,10.8-8.4,10.9c0,0,0,0,0,0c0,0.1-0.1,0.2-0.2,0.3c0,0,0,0,0,0
		c-0.1,0.1-0.1,0.1-0.2,0.2c0,0,0,0,0,0c-0.1,0.1-0.2,0.1-0.2,0.1c0,0-0.1,0-0.1,0.1c-0.1,0-0.3,0.1-0.4,0.1c-0.1,0-0.2,0-0.2,0
		c0,0-0.1,0-0.1,0c0,0-0.1,0-0.1,0c0,0,0,0,0,0c0,0-0.1,0-0.1-0.1c0,0-0.1,0-0.1-0.1c0,0-0.1,0-0.1-0.1c0,0-0.1-0.1-0.1-0.1
		c0,0,0,0-0.1-0.1l-3.4-4.2c-0.4-0.5-0.3-1.3,0.2-1.7c0.5-0.4,1.3-0.3,1.7,0.2l2.1,2.7C268.9,62.2,271.4,58.2,276,54.4z M301.6,82.7
		c-4.3,11.1-12.7,17.6-24.6,19.1c-17.2,2.2-32.6-10.4-34.1-27.7c-1.5-17.8,11.8-32.8,29.5-33.3c1.7-0.1,3.4-0.3,5.1-0.4
		c1.4-0.1,2.3-0.7,1.9-2.7c1,0.4,1.6,0.7,2.3,1c0.1,0.2,0.1,0.4,0.2,0.6c0.8-0.8,1.5-1.6,2.3-2.3c0.4-0.3,0.8-0.8,1.2-0.8
		c1.8-0.1,3.6,0,5.5,0c0.1,0.7,0.1,1.2,0.2,1.9c1.8,0,3.6,0,5.5,0c0,0.8,0,1.4,0,2.1c-1.8,0-3.6,0-5.5,0c0,1.4,0,2.7,0,4.2
		c1.8,0,3.6,0,5.4,0c0,0.6,0,1,0,1.5c-1.8,0-3.6,0-5.5,0c-0.1,0.9-0.1,1.6-0.2,2.5c-1.9,0-3.8,0-5.8,0c-0.2,0-0.5-0.2-0.6-0.4
		c-2-2.1-2-2.1-4.9-2.2c-0.1-1.3-0.9-1.5-2.1-1.6c-7.9-0.5-15.3,1-21.4,6.3c-8.9,7.8-12.1,17.6-8.6,28.9c3.4,11.2,11.4,17.8,23,19.2
		c17,2,33-12.6,30.8-30.8c-0.9-7.9-1.5-9.5-6.9-18.6c0.7,0.8,1.5,1.6,2.2,2.5C304.1,61.1,305.9,71.6,301.6,82.7z M269,80.3
		c-2.9,0-5.3-2.4-5.3-5.4v-0.8h-1.1c-2.9,0-5.3-2.4-5.3-5.3v-9.2c0-3,2.4-5.4,5.3-5.4h6.6c0.7,0,1.2,0.6,1.2,1.2
		c0,0.7-0.6,1.2-1.2,1.2h-6.6c-1.6,0-2.9,1.3-2.9,2.9v9.2c0,1.6,1.3,2.9,2.9,2.9h10.3c1.6,0,2.9-1.3,2.9-2.9v-4.1
		c0-0.7,0.6-1.2,1.2-1.2c0.7,0,1.2,0.6,1.2,1.2v4.1c0,2.9-2.4,5.3-5.3,5.3h-6.7v0.8c0,1.6,1.3,2.9,2.9,2.9h10.3
		c1.6,0,2.9-1.3,2.9-2.9v-9.2c0-1.6-1.3-2.9-2.9-2.9c-0.7,0-1.2-0.6-1.2-1.2c0-0.7,0.6-1.2,1.2-1.2c2.9,0,5.3,2.4,5.3,5.4v0.8h0.8
		c2.9,0,5.3,2.4,5.3,5.4v9.2c0,3-2.4,5.4-5.3,5.4h-10.3c-2.9,0-5.3-2.4-5.3-5.4v-0.8H269z M272.3,81.5v-0.8h7c2.9,0,5.3-2.4,5.3-5.4
		v-5.9h0.8c1.6,0,2.9,1.3,2.9,2.9v9.2c0,1.6-1.3,2.9-2.9,2.9h-10.3C273.6,84.4,272.3,83.1,272.3,81.5z M497.6,257.3
		c-25.5,0-46.3,20.7-46.3,46.3c0,25.5,20.7,46.3,46.3,46.3c25.5,0,46.3-20.7,46.3-46.3C543.8,278,523.1,257.3,497.6,257.3z
		 M521.3,317.7c-0.2,8.9-4.3,15.4-12.3,19.4c-7.5,3.7-16.8,2.3-23.1-3.2c-4.8-4.3-7.3-9.7-7.3-16.1c0-1.2-0.5-2.2-1.5-2.8
		c-1-0.7-2.1-1.4-3.1-2.2c-2-1.7-2.5-4-2.6-6.5c0-0.8,0-1.6,0-2.4c0-1.6-0.6-2.9-1.9-3.9c-3-2.4-4.8-5.5-5.2-9.4
		c-0.5-4.3,1.3-7.7,4.5-10.4c1.3-1.1,2.8-1.9,4.5-2.4c0.2-0.1,0.4-0.4,0.5-0.6c0.3-1.4,1.3-2.3,2.5-2.2c1.3,0.1,2.2,1.1,2.2,2.6
		c0,1.4,0,2.8,0,4.2c0,1.4-0.7,2.3-1.9,2.5c-1,0.2-2-0.4-2.6-1.6c0-0.1-0.1-0.1-0.1-0.2c-3.4,1.1-5.5,5.1-4.7,8.7
		c0.5,2.1,1.6,3.8,3.3,5.2c2.3,1.8,3.5,4.3,3.6,7.2c0,0.8,0,1.6,0,2.5c0,1.7,0.6,3,2.1,3.9c0.3,0.2,0.5,0.3,0.8,0.5
		c0.6,0.4,1.3,1.1,1.9,1.1c0.6,0,1.3-0.8,1.9-1.2c2.1-1.1,3-2.8,2.9-5.2c-0.1-2.3,0.1-4.5,1.4-6.5c0.6-0.9,1.4-1.8,2.2-2.5
		c2.4-2,3.6-4.5,3.5-7.5c-0.1-2.6-2.3-5.5-4.9-6.4c-0.1,0.2-0.2,0.3-0.3,0.5c-0.5,1-1.5,1.5-2.4,1.3c-1.1-0.2-1.9-1.1-1.9-2.2
		c-0.1-1.7-0.1-3.3,0-5c0-1.2,1.1-2.2,2.2-2.2c1.1-0.1,2.2,0.8,2.3,2c0.1,0.6,0.3,0.7,0.8,0.9c5,1.9,8.2,5.3,8.7,10.7
		c0.4,4.6-1.5,8.4-5.1,11.3c-1.3,1.1-2,2.4-2,4.2c0,1.8-0.1,3.6-0.5,5.4c-0.4,2-1.9,3.3-3.5,4.4c-0.3,0.2-0.5,0.4-0.8,0.5
		c-1.8,0.9-2.4,2.5-2.3,4.4c0.4,8.2,7.1,15.1,15.3,15.7c10,0.8,18.2-6.8,18.2-16.8c0-6.1,0-12.2,0-18.3c0-0.2,0-0.4,0-0.6
		c1.5,0,3,0,4.6,0c0,0.5,0,1.1,0,1.6C521.3,306.1,521.4,311.9,521.3,317.7z M519,296.2c-6.5,0-11.8-5.3-11.8-11.8
		c0-6.4,5.4-11.8,11.8-11.8c6.5,0,11.8,5.3,11.8,11.8S525.5,296.2,519,296.2z M519,277.2c-4,0-7.2,3.2-7.3,7.2
		c0,4.1,3.1,7.3,7.2,7.3c4,0,7.2-3.2,7.3-7.2C526.3,280.4,523.1,277.2,519,277.2z M519,289.1c-2.5,0-4.7-2.2-4.7-4.7
		c0-2.6,2.2-4.8,4.8-4.7c2.5,0,4.7,2.2,4.7,4.7C523.7,287,521.5,289.1,519,289.1z M566.2,319c-0.3-0.3-0.4-0.7-0.4-1.1
		c0-0.4,0.1-0.8,0.4-1.1c0.3-0.3,0.6-0.4,1.1-0.4c0.4,0,0.8,0.1,1.1,0.4c0.3,0.3,0.4,0.6,0.4,1.1c0,0.4-0.1,0.8-0.4,1.1
		c-0.3,0.3-0.7,0.5-1.1,0.5C566.9,319.5,566.5,319.3,566.2,319z M566,330.2h2.5v-9.7H566V330.2z M573.6,323.7
		c0.6-0.7,1.3-1.1,2.2-1.1c1.2,0,1.8,0.6,1.8,1.8v5.8h2.6v-6.8c0-1-0.3-1.7-0.8-2.3c-0.5-0.5-1.3-0.8-2.4-0.8c-0.7,0-1.4,0.1-2,0.4
		c-0.6,0.3-1.1,0.6-1.4,1v-1.2h-2.5v9.7h2.5V323.7z M583.2,329.1c-0.8-0.9-1.2-2.1-1.2-3.7c0-1.5,0.4-2.8,1.2-3.7s1.8-1.4,3.1-1.4
		c1.2,0,2.2,0.5,3,1.5v-4.9h2.6v13.3h-2.6v-1.2c-0.8,1-1.8,1.5-3,1.5C585,330.4,584,330,583.2,329.1z M584.6,325.3
		c0,0.8,0.2,1.5,0.7,2c0.5,0.5,1,0.8,1.8,0.8c0.4,0,0.8-0.1,1.3-0.3c0.4-0.2,0.7-0.5,0.9-0.8v-3.4c-0.2-0.3-0.5-0.6-0.9-0.8
		c-0.4-0.2-0.8-0.3-1.3-0.3c-0.7,0-1.3,0.3-1.8,0.8C584.9,323.8,584.6,324.5,584.6,325.3z M595.2,329c-1-0.9-1.5-2.2-1.5-3.7
		c0-1.4,0.5-2.6,1.4-3.6c0.9-1,2.1-1.5,3.6-1.5c1.4,0,2.6,0.5,3.5,1.5c0.9,1,1.3,2.3,1.3,3.8v0.6h-7.2c0.1,0.6,0.4,1.1,0.9,1.5
		c0.5,0.4,1.1,0.6,1.9,0.6c0.4,0,0.9-0.1,1.4-0.3c0.5-0.2,0.9-0.4,1.2-0.7l1.1,1.7c-1,0.9-2.3,1.3-4,1.3
		C597.4,330.4,596.2,330,595.2,329z M596.4,324.4h4.8c-0.1-0.5-0.3-1-0.7-1.4c-0.4-0.4-1-0.6-1.7-0.6c-0.7,0-1.3,0.2-1.7,0.6
		C596.7,323.4,596.4,323.9,596.4,324.4z M617.9,329c-1-0.9-1.5-2.2-1.5-3.7c0-1.4,0.5-2.6,1.4-3.6c0.9-1,2.1-1.5,3.6-1.5
		c1.4,0,2.6,0.5,3.5,1.5c0.9,1,1.3,2.3,1.3,3.8v0.6h-7.2c0.1,0.6,0.4,1.1,0.9,1.5c0.5,0.4,1.1,0.6,1.9,0.6c0.4,0,0.9-0.1,1.4-0.3
		c0.5-0.2,0.9-0.4,1.2-0.7l1.1,1.7c-1,0.9-2.3,1.3-4,1.3C620.1,330.4,618.9,330,617.9,329z M619.1,324.4h4.8c-0.1-0.5-0.3-1-0.7-1.4
		c-0.4-0.4-1-0.6-1.7-0.6c-0.7,0-1.3,0.2-1.7,0.6C619.4,323.4,619.2,323.9,619.1,324.4z M634.1,320.3c-0.7,0-1.4,0.1-2,0.4
		c-0.6,0.3-1.1,0.6-1.4,1v-1.2h-2.5v9.7h2.5v-6.5c0.6-0.7,1.3-1.1,2.2-1.1c1.2,0,1.8,0.6,1.8,1.8v5.8h2.6v-6.8c0-1-0.3-1.7-0.8-2.3
		C635.9,320.6,635.1,320.3,634.1,320.3z M646.4,316.8h2.6v13.3h-2.6v-1.2c-0.8,1-1.8,1.5-3,1.5c-1.3,0-2.3-0.5-3.1-1.4
		c-0.8-0.9-1.2-2.1-1.2-3.7c0-1.5,0.4-2.8,1.2-3.7s1.8-1.4,3.1-1.4c1.2,0,2.2,0.5,3,1.5V316.8z M646.4,323.6
		c-0.2-0.3-0.5-0.6-0.9-0.8c-0.4-0.2-0.8-0.3-1.3-0.3c-0.7,0-1.3,0.3-1.8,0.8c-0.5,0.5-0.7,1.2-0.7,2c0,0.8,0.2,1.5,0.7,2
		c0.5,0.5,1,0.8,1.8,0.8c0.4,0,0.8-0.1,1.3-0.3c0.4-0.2,0.7-0.5,0.9-0.8V323.6z M659.3,321.8c0.9,1,1.3,2.3,1.3,3.8v0.6h-7.2
		c0.1,0.6,0.4,1.1,0.9,1.5c0.5,0.4,1.1,0.6,1.9,0.6c0.4,0,0.9-0.1,1.4-0.3c0.5-0.2,0.9-0.4,1.2-0.7l1.1,1.7c-1,0.9-2.3,1.3-4,1.3
		c-1.5,0-2.7-0.5-3.7-1.4c-1-0.9-1.5-2.2-1.5-3.7c0-1.4,0.5-2.6,1.4-3.6c0.9-1,2.1-1.5,3.6-1.5C657.3,320.3,658.4,320.8,659.3,321.8
		z M658.2,324.4c-0.1-0.5-0.3-1-0.7-1.4c-0.4-0.4-1-0.6-1.7-0.6c-0.7,0-1.3,0.2-1.7,0.6c-0.4,0.4-0.6,0.9-0.7,1.5H658.2z
		 M668.4,320.3c-0.7,0-1.4,0.1-2,0.4c-0.6,0.3-1.1,0.6-1.4,1v-1.2h-2.5v9.7h2.5v-6.5c0.6-0.7,1.3-1.1,2.2-1.1c1.2,0,1.8,0.6,1.8,1.8
		v5.8h2.6v-6.8c0-1-0.3-1.7-0.8-2.3C670.2,320.6,669.5,320.3,668.4,320.3z M678.9,327.9c-0.2,0.2-0.5,0.3-0.9,0.3
		c-0.3,0-0.5-0.1-0.7-0.3c-0.2-0.2-0.2-0.5-0.2-0.8v-4.3h2v-2.2h-2v-2.6h-2.5v2.6H673v2.2h1.6v5c0,1.8,0.9,2.7,2.7,2.7
		c0.9,0,1.7-0.2,2.1-0.6L678.9,327.9z M605.7,333.9h-0.2v-13.3h2.5v1.2c0.8-1,1.8-1.5,3-1.5c1.3,0,2.3,0.5,3.1,1.3
		c0.8,0.9,1.2,2.1,1.2,3.7c0,1.6-0.4,2.8-1.2,3.7c-0.8,0.9-1.8,1.4-3.1,1.4c-1.2,0-2.2-0.5-3-1.5v4.1c0.1,0.1,0.2,0.1,0.2,0.1
		c0.3,0.3,0.4,0.6,0.4,1.1s-0.1,0.8-0.4,1.1c-0.3,0.3-0.7,0.5-1.1,0.5c-0.4,0-0.8-0.2-1.1-0.5c-0.3-0.3-0.4-0.7-0.4-1.1
		C605.6,334.1,605.6,334,605.7,333.9z M608,327c0.2,0.3,0.5,0.6,1,0.8c0.4,0.2,0.8,0.3,1.2,0.3c0.7,0,1.3-0.3,1.8-0.8
		c0.5-0.5,0.7-1.2,0.7-2c0-0.8-0.2-1.5-0.7-2c-0.5-0.5-1-0.8-1.8-0.8c-0.4,0-0.8,0.1-1.2,0.3c-0.4,0.2-0.7,0.5-0.9,0.8V327z
		 M576.5,338.8c-0.4,0-0.8,0.1-1.2,0.3c-0.4,0.2-0.6,0.5-0.8,0.8v6.5H572v-6.1c0-1-0.5-1.5-1.4-1.5c-0.8,0-1.5,0.4-2,1.1v6.5H566
		v-9.7h2.5v1.2c0.3-0.3,0.7-0.7,1.3-1c0.6-0.3,1.2-0.5,1.9-0.5c1.4,0,2.3,0.6,2.7,1.7c0.3-0.5,0.8-0.9,1.4-1.2
		c0.6-0.3,1.3-0.5,2-0.5c0.9,0,1.6,0.2,2.1,0.7c0.5,0.5,0.7,1.2,0.7,2.2v7H578v-6.1C578,339.3,577.5,338.8,576.5,338.8z
		 M592.3,342.4h-7.2c0.1,0.6,0.4,1.1,0.9,1.5c0.5,0.4,1.1,0.6,1.9,0.6c0.4,0,0.9-0.1,1.4-0.3c0.5-0.2,0.9-0.4,1.2-0.7l1.1,1.7
		c-1,0.9-2.3,1.3-4,1.3c-1.5,0-2.7-0.5-3.7-1.4c-1-0.9-1.5-2.2-1.5-3.7c0-1.4,0.5-2.6,1.4-3.6c0.9-1,2.1-1.5,3.6-1.5
		c1.4,0,2.6,0.5,3.5,1.5c0.9,1,1.3,2.3,1.3,3.8V342.4z M589.8,340.7c-0.1-0.5-0.3-1-0.7-1.4c-0.4-0.4-1-0.6-1.7-0.6
		c-0.7,0-1.3,0.2-1.7,0.6c-0.4,0.4-0.6,0.9-0.7,1.5H589.8z M600.8,346.4v-1.2c-0.8,1-1.8,1.5-3,1.5c-1.3,0-2.3-0.5-3.1-1.4
		c-0.8-0.9-1.2-2.1-1.2-3.7c0-1.5,0.4-2.8,1.2-3.7c0.8-0.9,1.8-1.4,3.1-1.4c1.2,0,2.2,0.5,3,1.5v-4.9h2.6v13.3H600.8z M600.8,343.3
		v-3.4c-0.2-0.3-0.5-0.6-0.9-0.8c-0.4-0.2-0.8-0.3-1.3-0.3c-0.7,0-1.3,0.3-1.8,0.8c-0.5,0.5-0.7,1.2-0.7,2c0,0.8,0.2,1.5,0.7,2
		c0.5,0.5,1,0.8,1.8,0.8c0.4,0,0.8-0.1,1.3-0.3C600.2,343.9,600.6,343.6,600.8,343.3z M605.8,346.4h2.5v-9.7h-2.5V346.4z
		 M610.3,341.6c0,1.5,0.5,2.7,1.5,3.6c1,1,2.2,1.4,3.7,1.4c1.7,0,3-0.6,3.8-1.8l-1.7-1.6c-0.5,0.7-1.2,1.1-2,1.1
		c-0.8,0-1.4-0.3-1.9-0.8c-0.5-0.5-0.7-1.2-0.7-2c0-0.8,0.2-1.5,0.7-2c0.5-0.5,1.1-0.8,1.9-0.8c0.9,0,1.6,0.3,2,1l1.7-1.6
		c-0.8-1.2-2.1-1.7-3.8-1.7c-1.5,0-2.7,0.5-3.7,1.4C610.8,338.9,610.3,340.1,610.3,341.6z M623.6,346.7c-0.9,0-1.6-0.3-2.3-0.9
		c-0.7-0.6-1-1.3-1-2.3c0-1.1,0.3-1.8,1-2.3c0.7-0.5,1.4-0.8,2.3-0.8c1.4,0,2.4,0.4,3.1,1.2v-1.2c0-0.5-0.2-0.9-0.6-1.2
		c-0.4-0.3-0.9-0.4-1.5-0.4c-1,0-2,0.4-2.8,1.1l-1-1.8c1.1-1,2.5-1.5,4.2-1.5c1.2,0,2.3,0.3,3,0.9c0.8,0.6,1.2,1.5,1.2,2.8v6.2h-2.6
		v-1C626,346.3,625,346.7,623.6,346.7z M623.3,344.6c0.3,0.3,0.8,0.4,1.3,0.4c0.9,0,1.6-0.3,2-0.8v-1.2c-0.4-0.6-1.1-0.9-2-0.9
		c-0.5,0-1,0.1-1.3,0.4c-0.3,0.3-0.5,0.6-0.5,1.1S623,344.3,623.3,344.6z M631.7,333.1v13.3h2.5v-13.3H631.7z M570.4,352.8
		c-1.4,0-2.6,0.5-3.6,1.5c-0.9,1-1.4,2.2-1.4,3.6c0,1.5,0.5,2.7,1.5,3.7c1,0.9,2.2,1.4,3.7,1.4c1.7,0,3-0.4,4-1.3l-1.1-1.7
		c-0.3,0.3-0.7,0.5-1.2,0.7c-0.5,0.2-1,0.3-1.4,0.3c-0.8,0-1.4-0.2-1.9-0.6c-0.5-0.4-0.8-0.9-0.9-1.5h7.2v-0.6
		c0-1.6-0.4-2.9-1.3-3.8C573,353.3,571.8,352.8,570.4,352.8z M568,356.9c0.1-0.6,0.3-1,0.7-1.5c0.4-0.4,1-0.6,1.7-0.6
		c0.8,0,1.3,0.2,1.7,0.6c0.4,0.4,0.6,0.9,0.7,1.4H568z M583.5,353h2.7l-3.9,9.7h-2.7l-3.9-9.7h2.7l2.5,6.7L583.5,353z M594.5,353.6
		c-0.8-0.6-1.8-0.9-3-0.9c-1.7,0-3.1,0.5-4.2,1.5l1,1.8c0.8-0.8,1.8-1.1,2.8-1.1c0.6,0,1.2,0.1,1.5,0.4c0.4,0.3,0.6,0.7,0.6,1.2v1.2
		c-0.7-0.8-1.7-1.2-3.1-1.2c-0.9,0-1.7,0.3-2.3,0.8c-0.7,0.5-1,1.3-1,2.3c0,1,0.3,1.8,1,2.3c0.7,0.6,1.5,0.9,2.3,0.9
		c1.3,0,2.4-0.4,3.1-1.3v1h2.6v-6.2C595.7,355.2,595.3,354.2,594.5,353.6z M593.1,360.4c-0.4,0.6-1.1,0.8-2,0.8
		c-0.5,0-1-0.1-1.3-0.4c-0.3-0.3-0.5-0.6-0.5-1s0.2-0.8,0.5-1.1c0.3-0.3,0.8-0.4,1.3-0.4c0.9,0,1.6,0.3,2,0.9V360.4z M598.2,349.3
		h2.5v13.3h-2.5V349.3z M609.8,353h2.5v9.7h-2.5v-1.2c-0.9,1-2,1.5-3.4,1.5c-1,0-1.8-0.3-2.3-0.8c-0.5-0.5-0.8-1.3-0.8-2.2V353h2.5
		v5.9c0,1.2,0.6,1.8,1.8,1.8c0.9,0,1.6-0.4,2.2-1.1V353z M619.6,360.4l0.5,1.9c-0.5,0.4-1.2,0.6-2.1,0.6c-1.8,0-2.7-0.9-2.7-2.7v-5
		h-1.6V353h1.6v-2.6h2.5v2.6h2v2.2h-2v4.3c0,0.3,0.1,0.6,0.2,0.8c0.2,0.2,0.4,0.3,0.7,0.3C619.2,360.7,619.5,360.6,619.6,360.4z
		 M623.9,349.4c0.3,0.3,0.4,0.6,0.4,1.1s-0.1,0.8-0.4,1.1c-0.3,0.3-0.7,0.5-1.1,0.5c-0.4,0-0.8-0.2-1.1-0.5
		c-0.3-0.3-0.4-0.7-0.4-1.1s0.1-0.8,0.4-1.1c0.3-0.3,0.6-0.4,1.1-0.4C623.3,349,623.6,349.1,623.9,349.4z M621.6,353h2.5v9.7h-2.5
		V353z M631.1,352.8c-1.5,0-2.8,0.5-3.7,1.5c-0.9,1-1.4,2.2-1.4,3.6c0,1.4,0.5,2.6,1.4,3.6c0.9,1,2.2,1.5,3.7,1.5
		c1.5,0,2.8-0.5,3.7-1.5c0.9-1,1.4-2.2,1.4-3.6c0-1.4-0.5-2.6-1.4-3.6C633.9,353.3,632.7,352.8,631.1,352.8z M632.9,359.9
		c-0.4,0.5-1,0.8-1.8,0.8c-0.8,0-1.4-0.3-1.8-0.8c-0.4-0.5-0.7-1.2-0.7-2c0-0.8,0.2-1.5,0.7-2c0.4-0.5,1-0.8,1.8-0.8
		c0.8,0,1.4,0.3,1.8,0.8c0.4,0.5,0.7,1.2,0.7,2C633.6,358.6,633.4,359.3,632.9,359.9z M646.4,353.6c0.5,0.5,0.8,1.3,0.8,2.3v6.8
		h-2.6v-5.8c0-1.2-0.6-1.8-1.8-1.8c-0.9,0-1.6,0.4-2.2,1.1v6.5h-2.5V353h2.5v1.2c0.3-0.4,0.8-0.8,1.4-1c0.6-0.3,1.3-0.4,2-0.4
		C645.1,352.8,645.9,353.1,646.4,353.6z M337.2,167.6c-2.2,0-4.3,0.9-5.9,2.5c-1.6,1.6-2.5,3.7-2.5,5.9l0,21.8H307
		c-2.2,0-4.3,0.9-5.9,2.5c-1.6,1.6-2.4,3.7-2.5,5.9c0,4.6,3.8,8.4,8.4,8.4l30,0c2.2,0,4.3-0.9,5.9-2.4l0.1-0.1
		c1.6-1.6,2.5-3.7,2.5-5.9l0-30.1c0-2.2-0.9-4.3-2.5-5.9C341.6,168.4,339.5,167.6,337.2,167.6z"/>
	<path fill="#1DA1D0" d="M374.4,341.9c-25.1,0-45.4,20.3-45.4,45.4c0,25.1,20.3,45.4,45.4,45.4c25.1,0,45.4-20.3,45.4-45.4
		C419.8,362.2,399.4,341.9,374.4,341.9z M361.7,388.2c-3.2,1.9-6.4,3.9-9.5,5.9c-0.3,0.2-0.6,0.2-0.9,0.3c-0.1-0.3-0.3-0.7-0.3-1
		c0.1-1.6,0.3-3.1,0.4-4.7c0-0.3,0.1-0.6,0.1-1c-0.8,0-1.5,0-2.3,0c-0.7,0-0.9-0.3-0.9-0.9c0-2.1,0-4.3,0-6.4c0-7.2,0-14.4,0-21.6
		c0-0.4,0.3-0.9,0.4-1.3c11.8,0,23.6,0,35.4,0c0.1,0.4,0.3,0.9,0.3,1.3c0,9.2,0,18.5,0,27.7c0,1.2-0.1,1.2-1.3,1.2
		c-6.6,0-13.2,0-19.8,0C362.8,387.7,362.2,387.9,361.7,388.2z M384.7,395.3c0,1.3-1.2,2.3-2.4,2.3c-1.3,0-2.3-1.1-2.3-2.4
		c0-1.3,1.1-2.3,2.3-2.3C383.7,392.8,384.7,393.9,384.7,395.3z M376.4,395.2c0,1.3-1,2.4-2.3,2.4c-1.3,0-2.3-1-2.3-2.3
		c0-1.3,1-2.4,2.3-2.4C375.3,392.8,376.4,393.9,376.4,395.2z M399.2,410.3c-0.6-0.1-1.3,0-2,0c0.2,1.7,0.3,3.2,0.5,4.7
		c0.1,0.7,0.4,1.5-0.3,2.1c-0.1,0-0.2,0-0.4,0c-2.8-1.8-5.6-3.4-8.3-5.3c-1.7-1.2-3.5-1.5-5.5-1.5c-5.9,0.1-11.8,0-17.8,0
		c-0.8,0-1.2-0.3-1.2-1.1c0-6.1,0-12.2,0-18.3c0-0.2,0-0.4,0-0.6c1,0,1.9,0,3,0c0,5.6,0,11.3,0,17c0.5,0,0.8,0,1.2,0
		c5.9,0,11.8,0,17.8,0c0.5,0,1.1,0.2,1.6,0.5c1.7,1,3.4,2.1,5.2,3.2c0.4,0.2,0.7,0.4,1.3,0.7c-0.1-1.6-0.3-2.9-0.4-4.4
		c1.1,0,2.2,0,3.4,0c0-8.1,0-16.1,0-24.3c-3.4,0-6.8,0-10.2,0c0-1,0-2,0-3c0.3,0,0.6,0,0.8,0c3.7,0,7.5,0,11.2,0
		c1.1,0,1.2,0.1,1.2,1.2c0,9.3,0,18.6,0,27.9C400.4,410.1,400.1,410.4,399.2,410.3z M388.3,395.1c0-1.3,1.1-2.3,2.4-2.3
		c1.3,0,2.3,1.1,2.3,2.4c0,1.3-1.1,2.3-2.3,2.3C389.3,397.5,388.3,396.4,388.3,395.1z M368.8,372.5c0,1.3-1.1,2.4-2.5,2.4
		c-1.3,0-2.5-1.2-2.4-2.5c0-1.3,1.2-2.4,2.5-2.4C367.8,370,368.8,371.1,368.8,372.5z M377.1,372.5c0,1.3-1.2,2.4-2.5,2.4
		c-1.3,0-2.5-1.2-2.4-2.5c0-1.3,1.2-2.4,2.5-2.4C376,370,377.1,371.1,377.1,372.5z M360.5,372.5c0,1.4-1.1,2.4-2.5,2.4
		c-1.3,0-2.4-1.1-2.4-2.5c0-1.3,1.1-2.4,2.5-2.4C359.5,370,360.5,371.1,360.5,372.5z M305.8,470.7c-1.2,0-2.2,0.5-3,1.5v-1.2h-2.5
		v13.3h2.5v-4.9c0.8,1,1.8,1.5,3,1.5c1.3,0,2.3-0.5,3.1-1.4c0.8-0.9,1.2-2.1,1.2-3.7c0-1.6-0.4-2.8-1.2-3.7
		C308.1,471.1,307.1,470.7,305.8,470.7z M306.8,477.8c-0.5,0.5-1,0.8-1.8,0.8c-0.4,0-0.8-0.1-1.2-0.3c-0.4-0.2-0.7-0.5-1-0.8V474
		c0.2-0.3,0.5-0.6,0.9-0.8c0.4-0.2,0.8-0.3,1.2-0.3c0.7,0,1.3,0.3,1.8,0.8c0.5,0.5,0.7,1.2,0.7,2
		C307.5,476.6,307.2,477.3,306.8,477.8z M316.3,470.7c-1.4,0-2.6,0.5-3.6,1.5c-0.9,1-1.4,2.2-1.4,3.6c0,1.5,0.5,2.7,1.5,3.7
		c1,0.9,2.2,1.4,3.7,1.4c1.7,0,3-0.4,4-1.3l-1.1-1.7c-0.3,0.3-0.7,0.5-1.2,0.7c-0.5,0.2-1,0.3-1.4,0.3c-0.8,0-1.4-0.2-1.9-0.6
		c-0.5-0.4-0.8-0.9-0.9-1.5h7.2V476c0-1.6-0.4-2.9-1.3-3.8C318.9,471.2,317.8,470.7,316.3,470.7z M314,474.8c0.1-0.6,0.3-1,0.7-1.5
		c0.4-0.4,1-0.6,1.7-0.6c0.8,0,1.3,0.2,1.7,0.6c0.4,0.4,0.6,0.9,0.7,1.4H314z M327.4,470.7c-1.4,0-2.6,0.5-3.6,1.5
		c-0.9,1-1.4,2.2-1.4,3.6c0,1.5,0.5,2.7,1.5,3.7c1,0.9,2.2,1.4,3.7,1.4c1.7,0,3-0.4,4-1.3l-1.1-1.7c-0.3,0.3-0.7,0.5-1.2,0.7
		c-0.5,0.2-1,0.3-1.4,0.3c-0.8,0-1.4-0.2-1.9-0.6c-0.5-0.4-0.8-0.9-0.9-1.5h7.2V476c0-1.6-0.4-2.9-1.3-3.8
		C330,471.2,328.8,470.7,327.4,470.7z M325,474.8c0.1-0.6,0.3-1,0.7-1.5c0.4-0.4,1-0.6,1.7-0.6c0.8,0,1.3,0.2,1.7,0.6
		c0.4,0.4,0.6,0.9,0.7,1.4H325z M338,471.1c0.6-0.3,1.1-0.4,1.7-0.4v2.5c-0.2,0-0.4-0.1-0.7-0.1c-0.4,0-0.9,0.1-1.4,0.3
		c-0.5,0.2-0.8,0.5-1,0.8v6.4h-2.5v-9.7h2.5v1.3C337,471.8,337.4,471.4,338,471.1z M350.3,471.1c0.6-0.3,1.1-0.4,1.7-0.4v2.5
		c-0.2,0-0.4-0.1-0.7-0.1c-0.4,0-0.9,0.1-1.4,0.3c-0.5,0.2-0.8,0.5-1,0.8v6.4h-2.5v-9.7h2.5v1.3
		C349.3,471.8,349.8,471.4,350.3,471.1z M358,470.7c-1.4,0-2.6,0.5-3.6,1.5c-0.9,1-1.4,2.2-1.4,3.6c0,1.5,0.5,2.7,1.5,3.7
		c1,0.9,2.2,1.4,3.7,1.4c1.7,0,3-0.4,4-1.3l-1.1-1.7c-0.3,0.3-0.7,0.5-1.2,0.7c-0.5,0.2-1,0.3-1.4,0.3c-0.8,0-1.4-0.2-1.9-0.6
		c-0.5-0.4-0.8-0.9-0.9-1.5h7.2V476c0-1.6-0.4-2.9-1.3-3.8C360.6,471.2,359.4,470.7,358,470.7z M355.6,474.8c0.1-0.6,0.3-1,0.7-1.5
		c0.4-0.4,1-0.6,1.7-0.6c0.8,0,1.3,0.2,1.7,0.6c0.4,0.4,0.6,0.9,0.7,1.4H355.6z M371,470.9h2.7l-3.9,9.7h-2.7l-3.9-9.7h2.7l2.5,6.7
		L371,470.9z M377.2,467.3c0.3,0.3,0.4,0.6,0.4,1.1s-0.1,0.8-0.4,1.1c-0.3,0.3-0.7,0.5-1.1,0.5c-0.4,0-0.8-0.2-1.1-0.5
		c-0.3-0.3-0.4-0.7-0.4-1.1s0.1-0.8,0.4-1.1c0.3-0.3,0.6-0.4,1.1-0.4C376.6,466.9,377,467,377.2,467.3z M374.9,470.9h2.5v9.7h-2.5
		V470.9z M384.3,470.7c-1.4,0-2.6,0.5-3.6,1.5c-0.9,1-1.4,2.2-1.4,3.6c0,1.5,0.5,2.7,1.5,3.7c1,0.9,2.2,1.4,3.7,1.4
		c1.7,0,3-0.4,4-1.3l-1.1-1.7c-0.3,0.3-0.7,0.5-1.2,0.7c-0.5,0.2-1,0.3-1.4,0.3c-0.8,0-1.4-0.2-1.9-0.6c-0.5-0.4-0.8-0.9-0.9-1.5
		h7.2V476c0-1.6-0.4-2.9-1.3-3.8C387,471.2,385.8,470.7,384.3,470.7z M382,474.8c0.1-0.6,0.3-1,0.7-1.5c0.4-0.4,1-0.6,1.7-0.6
		c0.8,0,1.3,0.2,1.7,0.6c0.4,0.4,0.6,0.9,0.7,1.4H382z M402.5,470.9h2.7l-2.9,9.7h-2.7l-2-6.6l-2,6.6h-2.7l-2.9-9.7h2.6l1.8,6.5
		l2.1-6.5h2.3l2.1,6.5L402.5,470.9z M354.9,264.1c-1.6-1.6-2.5-3.7-2.5-5.9l0-30.1c0-2.2,0.9-4.3,2.5-5.9l0.1-0.1
		c1.6-1.6,3.7-2.5,5.9-2.5l30,0c4.6,0,8.4,3.8,8.4,8.4c0,2.2-0.9,4.3-2.4,5.9c-1.6,1.6-3.7,2.5-5.9,2.5h-21.8l0,21.8
		c0,2.2-0.9,4.3-2.5,5.9c-1.6,1.6-3.7,2.5-5.9,2.5C358.6,266.6,356.5,265.7,354.9,264.1z"/>
	<path fill="#94B946" d="M228.6,292.2c-25.3,0-45.8,20.5-45.8,45.8c0,25.3,20.5,45.8,45.8,45.8c25.3,0,45.8-20.5,45.8-45.8
		C274.4,312.7,253.9,292.2,228.6,292.2z M228.5,375.7c-21.6-0.1-38.5-17.4-37.8-39.2c0.3-10.1,4.3-18.8,11.7-25.8
		c7.3-6.9,16.1-10.5,26.1-10.5c10.4,0,19.4,3.8,26.8,11c7.1,6.9,11.2,16.8,11.2,26.7C266.4,359.3,249.2,375.8,228.5,375.7z
		 M227,306.4c-16,0.6-30.2,13.7-30,32.1c0.2,17.1,14.1,31.2,31.7,31.2c17.6-0.1,31.5-14.5,31.4-31.8
		C260.1,320.6,246,305.6,227,306.4z M217.4,363.7c-5.8-6.8-11.7-13.5-17.6-20.4c1.8-0.5,3.4-1,5.1-1.6c4.2,7.3,8.4,14.6,12.6,21.8
		C217.5,363.6,217.5,363.7,217.4,363.7z M220.2,364.7c-5.4-10-10.8-19.9-16.2-30.1c3-0.5,5.9-1,8.9-1.6c2.5,10.6,5,21,7.4,31.5
		C220.3,364.7,220.3,364.7,220.2,364.7z M242.8,362.6c-3.3,2-7,3.2-10.9,3.6c-2.7,0.3-5.3,0.2-8-0.2c-0.8-0.1-1.1-0.5-1.3-1.3
		c-0.6-2.9-1.3-5.7-1.9-8.5c-0.9-4-1.8-8-2.7-12.1c-0.7-3.3-1.5-6.6-2.2-9.9c-0.9-3.8-1.7-7.6-2.6-11.4c0-0.1,0-0.3,0-0.5
		c1.3-0.1,2.6-0.3,3.9-0.4c4.8-0.5,9.5-1,14.2-1.4c4.1-0.4,8.2-0.8,12.3-1.2c1.8-0.2,3.5-0.4,5.3-0.5c0.3,0,0.7,0.2,0.9,0.4
		c4.3,4.7,6.8,10.2,7.2,16.5C257.6,347.4,252.8,356.5,242.8,362.6z M239.2,340.9c0.2,0.7,0.3,1.3,0.5,2c-1.7,0.1-3.2,0.3-4.8,0.4
		c-0.2,0-0.5-0.2-0.5-0.4c-0.7-2.9-1.3-5.8-1.9-8.7c0-0.1,0-0.2,0-0.4c0.7-0.1,1.4-0.2,2.2-0.3c0.4,1.7,0.7,3.2,1,4.8
		c0.2,0.7,0.3,1.4,0.4,2.2c0.1,0.8,0.6,0.8,1.2,0.7C238,341.1,238.6,341,239.2,340.9z M232.6,343.1c0.1,0.5,0,0.8-0.6,0.8
		c-0.5,0-1,0-1.6,0c-0.7-3.2-1.4-6.4-2.1-9.6c0.9-0.1,1.6-0.1,2.4-0.2c0.4,1.8,0.8,3.5,1.1,5.2C232.1,340.6,232.3,341.8,232.6,343.1
		z M249.6,334.3c-0.4,0.1-0.7,0.1-1.1,0.2c0.2,0.3,0.3,0.8,0.6,1c0.8,0.6,1.6,1.1,2.4,1.7c1.1,0.9,1.5,2.4,1.1,3.5
		c-0.3,0.9-1,1.3-1.8,1.5c-1.1,0.2-2.3,0.2-3.4-0.5c0.2-0.5,0.3-1,0.5-1.5c0.1-0.1,0.3-0.2,0.5-0.2c0.3,0,0.5,0.3,0.7,0.2
		c0.4,0,0.8-0.2,1.2-0.3c-0.2-0.4-0.2-0.9-0.5-1.1c-0.7-0.6-1.5-1-2.3-1.5c-1-0.6-1.4-1.6-1.5-2.7c-0.1-1.3,0.9-2.3,2.3-2.3
		c0.8,0,1.7,0.2,2.6,0.3c-0.2,0.7-0.2,1.3-0.5,1.7C250.5,334.2,250,334.2,249.6,334.3z M226.8,339.2c-0.1-0.1-0.3-0.2-0.4-0.3
		c0.8-0.8,0.7-1.6,0.3-2.5c-0.4-1-1.2-1.5-2.3-1.5c-1.2,0-2.5,0-3.9,0c0.7,3.3,1.4,6.4,2.1,9.4c0,0.2,0.4,0.4,0.6,0.4
		c1-0.1,2-0.2,3-0.3c1.2-0.2,2-0.9,2.1-1.9C228.6,340.9,228,339.7,226.8,339.2z M223.3,336.9c0.7-0.2,1.3-0.2,1.5,0.7
		c0.1,0.7-0.4,0.9-1.1,0.9C223.6,337.9,223.4,337.4,223.3,336.9z M224.9,342.6c-0.2,0-0.3-0.2-0.5-0.4c-0.1-0.1-0.1-0.2-0.1-0.3
		c-0.1-0.5-0.2-1-0.3-1.6c0.9-0.2,1.5-0.1,1.9,0.7C226.4,341.7,225.8,342.6,224.9,342.6z M246,340.4c0.2,0.7,0.3,1.3,0.4,2
		c-1.6,0.2-3.1,0.3-4.7,0.4c-0.2,0-0.6-0.2-0.7-0.4c-0.7-2.9-1.3-5.9-1.9-8.8c0-0.1,0-0.2,0-0.3c2.2-0.5,2.2-0.5,2.7,1.6
		c0.4,1.7,0.8,3.5,1.1,5.2c0.1,0.5,0.3,0.6,0.8,0.6C244.5,340.5,245.2,340.5,246,340.4z M84.9,313.2c-1.2,0-2.2,0.5-3,1.5v-4.9h-2.5
		v13.3h2.5v-1.2c0.8,1,1.8,1.5,3,1.5c1.3,0,2.3-0.5,3.1-1.4c0.8-0.9,1.2-2.1,1.2-3.7c0-1.5-0.4-2.8-1.2-3.7S86.1,313.2,84.9,313.2z
		 M85.9,320.3c-0.4,0.5-1,0.8-1.8,0.8c-0.4,0-0.8-0.1-1.2-0.3c-0.4-0.2-0.7-0.5-1-0.8v-3.4c0.2-0.3,0.5-0.6,1-0.8
		c0.4-0.2,0.8-0.3,1.2-0.3c0.7,0,1.3,0.3,1.8,0.8c0.4,0.5,0.7,1.2,0.7,2C86.5,319.1,86.3,319.8,85.9,320.3z M93.4,309.8
		c0.3,0.3,0.4,0.6,0.4,1.1c0,0.4-0.1,0.8-0.4,1.1c-0.3,0.3-0.7,0.5-1.1,0.5c-0.4,0-0.8-0.2-1.1-0.5c-0.3-0.3-0.4-0.7-0.4-1.1
		c0-0.4,0.1-0.8,0.4-1.1c0.3-0.3,0.6-0.4,1.1-0.4C92.8,309.4,93.1,309.5,93.4,309.8z M91.1,313.4h2.5v9.7h-2.5V313.4z M96.1,309.7
		h2.5v13.3h-2.5V309.7z M101.2,309.7h2.5v13.3h-2.5V309.7z M115.3,313.6c0.6-0.3,1.1-0.4,1.7-0.4v2.5c-0.2,0-0.4-0.1-0.7-0.1
		c-0.4,0-0.9,0.1-1.4,0.3c-0.5,0.2-0.8,0.5-1,0.8v6.4h-2.5v-9.7h2.5v1.3C114.3,314.3,114.8,313.9,115.3,313.6z M123,313.2
		c-1.4,0-2.6,0.5-3.6,1.5c-0.9,1-1.4,2.2-1.4,3.6c0,1.5,0.5,2.7,1.5,3.7c1,0.9,2.2,1.4,3.7,1.4c1.7,0,3-0.4,4-1.3l-1.1-1.7
		c-0.3,0.3-0.7,0.5-1.2,0.7c-0.5,0.2-0.9,0.3-1.4,0.3c-0.8,0-1.4-0.2-1.9-0.6c-0.5-0.4-0.8-0.9-0.9-1.5h7.2v-0.6
		c0-1.6-0.4-2.9-1.3-3.8C125.6,313.7,124.4,313.2,123,313.2z M120.6,317.3c0.1-0.6,0.3-1,0.7-1.5c0.4-0.4,1-0.6,1.7-0.6
		c0.8,0,1.3,0.2,1.7,0.6c0.4,0.4,0.6,0.9,0.7,1.4H120.6z M136.1,313.4h2.7l-3.9,9.7h-2.7l-3.9-9.7h2.7l2.5,6.7L136.1,313.4z
		 M142.3,309.8c0.3,0.3,0.4,0.6,0.4,1.1c0,0.4-0.1,0.8-0.4,1.1c-0.3,0.3-0.7,0.5-1.1,0.5c-0.4,0-0.8-0.2-1.1-0.5
		c-0.3-0.3-0.4-0.7-0.4-1.1c0-0.4,0.1-0.8,0.4-1.1c0.3-0.3,0.6-0.4,1.1-0.4C141.6,309.4,142,309.5,142.3,309.8z M139.9,313.4h2.5
		v9.7h-2.5V313.4z M149.4,313.2c-1.4,0-2.6,0.5-3.6,1.5c-0.9,1-1.4,2.2-1.4,3.6c0,1.5,0.5,2.7,1.5,3.7c1,0.9,2.2,1.4,3.7,1.4
		c1.7,0,3-0.4,4-1.3l-1.1-1.7c-0.3,0.3-0.7,0.5-1.2,0.7c-0.5,0.2-1,0.3-1.4,0.3c-0.8,0-1.4-0.2-1.9-0.6c-0.5-0.4-0.8-0.9-0.9-1.5
		h7.2v-0.6c0-1.6-0.4-2.9-1.3-3.8C152,313.7,150.8,313.2,149.4,313.2z M147,317.3c0.1-0.6,0.3-1,0.7-1.5c0.4-0.4,1-0.6,1.7-0.6
		c0.8,0,1.3,0.2,1.7,0.6c0.4,0.4,0.6,0.9,0.7,1.4H147z M167.5,313.4h2.7l-2.9,9.7h-2.7l-2-6.6l-2,6.6h-2.7l-2.9-9.7h2.6l1.8,6.5
		l2.1-6.5h2.3l2.1,6.5L167.5,313.4z M345.4,258.5c0,4.6-3.8,8.4-8.4,8.4c-2.2,0-4.3-0.9-5.9-2.5c-1.6-1.6-2.5-3.7-2.5-5.9v-21.8
		l-21.8,0c-2.2,0-4.3-0.9-5.9-2.5c-1.6-1.6-2.5-3.7-2.5-5.9c0-2.2,0.9-4.3,2.5-5.9c1.6-1.6,3.7-2.5,5.9-2.5l30.1,0
		c2.2,0,4.3,0.9,5.9,2.5l0.1,0.1c1.6,1.6,2.5,3.7,2.5,5.9L345.4,258.5z"/>
	<path fill="#ECAA20" d="M183.6,146.7c-25.2,0-45.7,20.4-45.7,45.7c0,25.2,20.4,45.7,45.7,45.7c25.2,0,45.7-20.5,45.7-45.7
		C229.3,167.1,208.8,146.7,183.6,146.7z M215.7,187.4c-0.3,2.4-0.9,4.6-1.8,6.8c-1.1,2.8-2.7,5.4-4.4,7.9c-1.5,2.1-3.2,4-5,5.9
		c-2.8,2.9-5.7,5.5-8.9,7.9c-2.5,2-5.1,3.8-7.8,5.5c-0.9,0.6-1.8,1.1-2.7,1.7c-0.3,0.2-0.6,0.4-0.9,0.5c0,0-0.1,0-0.1,0
		c-0.9-0.5-1.9-1.1-2.8-1.6c-2.2-1.4-4.4-2.8-6.5-4.3c-3.3-2.3-6.4-4.9-9.3-7.6c-2-1.9-4-4-5.7-6.2c-1-1.3-2-2.6-2.9-4
		c-0.3-0.4-0.5-0.8-0.8-1.3c0.1,0,0.2,0,0.3,0c4.1,0,8.2,0,12.3,0c0.2,0,0.2-0.1,0.3-0.2c0.6-1.8,1.3-3.6,1.9-5.5
		c0-0.1,0-0.1,0.1-0.2c1.3,5,2.6,10.1,3.9,15.1c0,0,0,0,0,0c1.5-7.3,3-14.7,4.4-22c0,0,0,0,0,0c1.9,10.4,3.7,20.8,5.6,31.2
		c0,0,0,0,0.1,0c1.6-7.4,3.3-14.8,4.9-22.2c0,0,0,0,0,0c0.9,4.1,1.9,8.2,2.8,12.3c0,0,0,0,0.1,0c1-3.1,2-6.3,3-9.4
		c0.1,0,0.2,0,0.3,0c1.9,0,3.9,0,5.8,0c0.1,0,0.2,0,0.2,0.2c0.5,1.4,1.8,2.5,3.6,2.3c1.5-0.2,2.7-1.3,3-2.9c0.3-1.9-1-3.7-3-3.9
		c-1.7-0.2-3.1,0.8-3.6,2.3c-0.1,0.2-0.1,0.2-0.3,0.2c-2.4,0-4.8,0-7.3,0c-0.1,0-0.2,0-0.3,0.2c-0.4,1.3-0.8,2.7-1.3,4
		c0,0.1,0,0.1-0.1,0.2c-0.1-0.3-0.1-0.5-0.2-0.7c-0.3-1.3-0.6-2.6-0.9-3.8c-0.4-1.7-0.8-3.4-1.1-5.1c-0.3-1.2-0.5-2.3-0.8-3.5
		c0-0.1-0.1-0.3-0.1-0.4c0,0,0-0.1-0.1-0.1c0,0-0.1,0.1-0.1,0.1c-0.3,1.4-0.6,2.7-0.9,4.1c-0.3,1.4-0.6,2.8-0.9,4.1
		c-0.4,1.9-0.8,3.7-1.2,5.5c-0.3,1.4-0.6,2.8-0.9,4.2c-0.2,1-0.4,2-0.7,3c0,0,0,0.1,0,0.1c-1.9-10.6-3.8-21.2-5.7-31.7
		c0,0,0,0-0.1,0c-1.6,7.8-3.2,15.7-4.8,23.5c0,0,0,0,0,0c-1.1-4.4-2.3-8.8-3.4-13.2c0,0,0,0-0.1,0c-1.2,3.4-2.4,6.9-3.6,10.4
		c-0.1,0-0.2,0-0.4,0c-4,0-7.9,0-11.9,0c-0.1,0-0.2,0-0.3-0.2c-1-2.1-1.9-4.3-2.4-6.6c-0.4-2-0.6-4-0.5-6c0.3-3.8,1.6-7.2,4-10.1
		c1.3-1.5,2.7-2.8,4.4-3.8c1.3-0.8,2.8-1.5,4.3-1.9c0.9-0.3,1.8-0.5,2.8-0.6c1.2-0.2,2.5-0.2,3.7-0.1c1.1,0.1,2.1,0.3,3.1,0.5
		c1.1,0.3,2.1,0.7,3.1,1.1c1.9,0.9,3.6,2.1,5.1,3.6c0.3,0.3,0.7,0.7,1,1.1c0,0.1,0.1,0.1,0.2,0.2c0.3-0.3,0.5-0.6,0.8-0.9
		c1.6-1.7,3.4-3.1,5.5-4.1c1.3-0.6,2.6-1.1,4-1.3c1.9-0.4,3.8-0.5,5.7-0.2c2.8,0.3,5.4,1.3,7.7,2.8c2.6,1.7,4.6,4,6.1,6.7
		c0.9,1.7,1.5,3.5,1.8,5.4C215.9,183.9,215.9,185.7,215.7,187.4z M79.5,162.7c-1-1-1.4-2.2-1.4-3.7c0-1.5,0.5-2.7,1.4-3.6
		c1-0.9,2.2-1.4,3.7-1.4c1.7,0,3,0.6,3.8,1.7l-1.7,1.6c-0.5-0.7-1.1-1-2-1c-0.8,0-1.4,0.3-1.9,0.8c-0.5,0.5-0.7,1.2-0.7,2
		c0,0.8,0.2,1.5,0.7,2c0.5,0.5,1.1,0.8,1.9,0.8c0.9,0,1.5-0.4,2-1.1l1.7,1.6c-0.9,1.2-2.1,1.8-3.8,1.8
		C81.7,164.1,80.5,163.6,79.5,162.7z M94.5,162.9v1H97v-6.2c0-1.3-0.4-2.2-1.2-2.8c-0.8-0.6-1.8-0.9-3.1-0.9c-1.7,0-3.1,0.5-4.2,1.5
		l1,1.8c0.8-0.8,1.8-1.1,2.8-1.1c0.6,0,1.2,0.1,1.5,0.4c0.4,0.3,0.6,0.7,0.6,1.2v1.2c-0.7-0.8-1.7-1.2-3.1-1.2
		c-0.9,0-1.7,0.3-2.3,0.8c-0.7,0.5-1,1.3-1,2.3c0,1,0.3,1.8,1,2.4c0.7,0.6,1.5,0.8,2.3,0.8C92.8,164.1,93.8,163.7,94.5,162.9z
		 M90.6,161c0-0.4,0.2-0.8,0.5-1.1c0.3-0.3,0.8-0.4,1.3-0.4c0.9,0,1.6,0.3,2,0.9v1.2c-0.4,0.6-1.1,0.8-2,0.8c-0.5,0-1-0.1-1.3-0.4
		C90.8,161.7,90.6,161.4,90.6,161z M103,164.1c-0.8,0-1.6-0.1-2.4-0.4c-0.8-0.3-1.4-0.6-1.9-1.1l1.1-1.8c0.4,0.4,0.9,0.7,1.5,0.9
		c0.6,0.3,1.2,0.4,1.8,0.4c1.1,0,1.6-0.3,1.6-1c0-0.2-0.1-0.4-0.4-0.6c-0.3-0.2-0.6-0.3-1.1-0.3c-0.4-0.1-0.9-0.2-1.4-0.3
		c-0.5-0.1-1-0.3-1.4-0.5c-0.4-0.2-0.8-0.5-1.1-0.9c-0.3-0.4-0.4-0.9-0.4-1.5c0-0.9,0.4-1.6,1.1-2.2c0.7-0.6,1.7-0.9,2.9-0.9
		c1.5,0,2.8,0.4,3.9,1.3l-1,1.8c-0.3-0.3-0.7-0.6-1.2-0.8c-0.5-0.2-1.1-0.3-1.6-0.3c-0.5,0-0.8,0.1-1.1,0.3
		c-0.3,0.2-0.4,0.4-0.4,0.7c0,0.3,0.2,0.5,0.6,0.6c0.4,0.1,0.9,0.3,1.4,0.4c0.6,0.1,1.1,0.3,1.7,0.4c0.6,0.2,1,0.5,1.4,1
		c0.4,0.5,0.6,1,0.6,1.8c0,0.9-0.4,1.6-1.1,2.2C105.3,163.8,104.3,164.1,103,164.1z M113.6,164.1c1.7,0,3-0.4,4-1.3l-1.1-1.7
		c-0.3,0.3-0.7,0.5-1.2,0.7c-0.5,0.2-1,0.3-1.4,0.3c-0.8,0-1.4-0.2-1.9-0.6c-0.5-0.4-0.8-0.9-0.9-1.6h7.2v-0.6
		c0-1.6-0.4-2.8-1.3-3.8c-0.9-1-2.1-1.5-3.5-1.5c-1.4,0-2.6,0.5-3.6,1.5c-0.9,1-1.4,2.2-1.4,3.6c0,1.5,0.5,2.7,1.5,3.7
		C110.9,163.6,112.1,164.1,113.6,164.1z M111.8,156.7c0.4-0.4,1-0.6,1.7-0.6c0.8,0,1.3,0.2,1.7,0.6c0.4,0.4,0.6,0.9,0.7,1.4h-4.8
		C111.1,157.6,111.4,157.1,111.8,156.7z M14.4,171c0.5,0.5,0.7,1.2,0.7,2.2v7h-2.6V174c0-1-0.5-1.5-1.4-1.5c-0.4,0-0.8,0.1-1.2,0.3
		c-0.4,0.2-0.6,0.5-0.8,0.8v6.5H6.5V174c0-1-0.5-1.5-1.4-1.5c-0.8,0-1.5,0.4-2,1.1v6.5H0.6v-9.7h2.5v1.2c0.3-0.3,0.7-0.7,1.3-1
		c0.6-0.3,1.2-0.5,1.9-0.5c1.4,0,2.3,0.6,2.7,1.7c0.3-0.5,0.8-0.9,1.4-1.2c0.6-0.3,1.3-0.5,1.9-0.5C13.2,170.2,13.9,170.5,14.4,171z
		 M24.8,171.1c-0.8-0.6-1.8-0.9-3-0.9c-1.7,0-3.1,0.5-4.2,1.5l1,1.8c0.8-0.8,1.8-1.1,2.8-1.1c0.6,0,1.2,0.1,1.5,0.4
		c0.4,0.3,0.6,0.7,0.6,1.2v1.2c-0.7-0.8-1.7-1.2-3.1-1.2c-0.9,0-1.7,0.3-2.3,0.8c-0.7,0.5-1,1.3-1,2.4c0,1,0.3,1.8,1,2.3
		c0.7,0.6,1.5,0.9,2.3,0.9c1.3,0,2.4-0.4,3.1-1.3v1H26v-6.2C26,172.6,25.6,171.7,24.8,171.1z M23.4,177.8c-0.4,0.6-1.1,0.8-2,0.8
		c-0.5,0-1-0.1-1.3-0.4c-0.3-0.3-0.5-0.6-0.5-1c0-0.4,0.2-0.8,0.5-1.1c0.3-0.3,0.8-0.4,1.3-0.4c0.9,0,1.6,0.3,2,0.9V177.8z
		 M36.8,171c0.5,0.5,0.8,1.3,0.8,2.3v6.8H35v-5.8c0-1.2-0.6-1.8-1.8-1.8c-0.9,0-1.6,0.4-2.2,1.1v6.5h-2.5v-9.7H31v1.2
		c0.3-0.4,0.8-0.8,1.4-1c0.6-0.3,1.3-0.4,2-0.4C35.4,170.2,36.2,170.5,36.8,171z M47.2,171.1c-0.8-0.6-1.8-0.9-3-0.9
		c-1.7,0-3.1,0.5-4.2,1.5l1,1.8c0.8-0.8,1.8-1.1,2.8-1.1c0.6,0,1.2,0.1,1.5,0.4c0.4,0.3,0.6,0.7,0.6,1.2v1.2
		c-0.7-0.8-1.7-1.2-3.1-1.2c-0.9,0-1.7,0.3-2.3,0.8c-0.7,0.5-1,1.3-1,2.4c0,1,0.3,1.8,1,2.3c0.7,0.6,1.5,0.9,2.3,0.9
		c1.3,0,2.4-0.4,3.1-1.3v1h2.6v-6.2C48.4,172.6,48,171.7,47.2,171.1z M45.9,177.8c-0.4,0.6-1.1,0.8-2,0.8c-0.5,0-1-0.1-1.3-0.4
		c-0.3-0.3-0.5-0.6-0.5-1c0-0.4,0.2-0.8,0.5-1.1c0.3-0.3,0.8-0.4,1.3-0.4c0.9,0,1.6,0.3,2,0.9V177.8z M57.6,171.7
		c-0.8-1-1.8-1.5-3-1.5c-1.3,0-2.3,0.4-3.1,1.3c-0.8,0.9-1.2,2.1-1.2,3.6c0,1.6,0.4,2.8,1.2,3.6c0.8,0.9,1.8,1.3,3.1,1.3
		c1.2,0,2.2-0.5,3-1.5v0.9c0,0.9-0.3,1.5-0.8,1.9c-0.5,0.4-1.2,0.6-1.9,0.6c-1.3,0-2.3-0.4-3-1.2l-1.1,1.8c1.1,1,2.5,1.4,4.2,1.4
		c0.7,0,1.3-0.1,1.8-0.2c0.6-0.1,1.1-0.4,1.6-0.7c0.5-0.3,1-0.8,1.3-1.4c0.3-0.6,0.5-1.4,0.5-2.2v-9h-2.5V171.7z M57.6,176.7
		c-0.2,0.3-0.5,0.6-1,0.8c-0.4,0.2-0.8,0.3-1.2,0.3c-0.7,0-1.3-0.2-1.8-0.7c-0.5-0.5-0.7-1.1-0.7-2c0-0.8,0.2-1.5,0.7-1.9
		c0.5-0.5,1-0.7,1.8-0.7c0.4,0,0.8,0.1,1.2,0.3c0.4,0.2,0.7,0.5,1,0.8V176.7z M67,170.2c-1.4,0-2.6,0.5-3.6,1.5
		c-0.9,1-1.4,2.2-1.4,3.6c0,1.5,0.5,2.7,1.5,3.7c1,0.9,2.2,1.4,3.7,1.4c1.7,0,3-0.4,4-1.3l-1.1-1.7c-0.3,0.3-0.7,0.5-1.2,0.7
		c-0.5,0.2-1,0.3-1.4,0.3c-0.8,0-1.4-0.2-1.9-0.6c-0.5-0.4-0.8-0.9-0.9-1.5h7.2v-0.6c0-1.6-0.4-2.9-1.3-3.8
		C69.6,170.7,68.4,170.2,67,170.2z M64.6,174.4c0.1-0.6,0.3-1,0.7-1.5c0.4-0.4,1-0.6,1.7-0.6c0.8,0,1.3,0.2,1.7,0.6
		c0.4,0.4,0.6,0.9,0.7,1.4H64.6z M87.5,171c0.5,0.5,0.7,1.2,0.7,2.2v7h-2.6V174c0-1-0.5-1.5-1.4-1.5c-0.4,0-0.8,0.1-1.2,0.3
		c-0.4,0.2-0.6,0.5-0.8,0.8v6.5h-2.6V174c0-1-0.5-1.5-1.4-1.5c-0.8,0-1.5,0.4-2,1.1v6.5h-2.5v-9.7h2.5v1.2c0.3-0.3,0.7-0.7,1.3-1
		c0.6-0.3,1.2-0.5,1.9-0.5c1.4,0,2.3,0.6,2.7,1.7c0.3-0.5,0.8-0.9,1.4-1.2c0.6-0.3,1.3-0.5,1.9-0.5C86.3,170.2,87,170.5,87.5,171z
		 M95.1,170.2c-1.4,0-2.6,0.5-3.6,1.5c-0.9,1-1.4,2.2-1.4,3.6c0,1.5,0.5,2.7,1.5,3.7c1,0.9,2.2,1.4,3.7,1.4c1.7,0,3-0.4,4-1.3
		l-1.1-1.7c-0.3,0.3-0.7,0.5-1.2,0.7c-0.5,0.2-1,0.3-1.4,0.3c-0.8,0-1.4-0.2-1.9-0.6c-0.5-0.4-0.8-0.9-0.9-1.5h7.2v-0.6
		c0-1.6-0.4-2.9-1.3-3.8C97.7,170.7,96.6,170.2,95.1,170.2z M92.8,174.4c0.1-0.6,0.3-1,0.7-1.5c0.4-0.4,1-0.6,1.7-0.6
		c0.8,0,1.3,0.2,1.7,0.6c0.4,0.4,0.6,0.9,0.7,1.4H92.8z M110.1,171c0.5,0.5,0.8,1.3,0.8,2.3v6.8h-2.6v-5.8c0-1.2-0.6-1.8-1.8-1.8
		c-0.9,0-1.6,0.4-2.2,1.1v6.5h-2.5v-9.7h2.5v1.2c0.3-0.4,0.8-0.8,1.4-1c0.6-0.3,1.3-0.4,2-0.4C108.8,170.2,109.5,170.5,110.1,171z
		 M118.2,177.8l0.5,1.9c-0.5,0.4-1.2,0.6-2.1,0.6c-1.8,0-2.7-0.9-2.7-2.7v-5h-1.6v-2.2h1.6v-2.6h2.5v2.6h2v2.2h-2v4.3
		c0,0.3,0.1,0.6,0.2,0.8c0.2,0.2,0.4,0.3,0.7,0.3C117.7,178.1,118,178,118.2,177.8z M500.9,89c-25.1,0-45.5,20.4-45.5,45.5
		c0,25.1,20.3,45.5,45.5,45.5c25.1,0,45.5-20.4,45.5-45.5C546.4,109.4,526,89,500.9,89z M534.1,122.2c0,8.3,0,16.6,0,24.9
		c0,1-0.3,1.2-1.2,1.2c-5.4,0-10.9,0-16.3,0c-0.6,0-1.2,0-1.9,0c0,6.5,0,12.8,0,19.2c-9.2,0-18.3,0-27.4,0c0-6.4,0-12.7,0-19.1
		c-6.5,0-12.9,0-19.5,0c0-0.9,0-1.6,0-2.3c0-7.8,0-15.6,0-23.4c0-1.7,0-1.7,1.7-1.7c5.5,0,11,0,16.4,0c1.1,0,1.4-0.3,1.4-1.4
		c-0.1-6,0-12.1,0-18.2c9.2,0,18.2,0,27.5,0c0,0.4,0,0.8,0,1.2c0,5.7,0,11.4,0,17.2c0,1,0.3,1.3,1.3,1.3c5.6,0,11.3,0,16.9,0
		C533.8,121,534.1,121.2,534.1,122.2z M569.8,157.7c0.8,1,1.8,1.5,3,1.5c1.3,0,2.3-0.5,3.1-1.4c0.8-0.9,1.2-2.1,1.2-3.7
		c0-1.6-0.4-2.8-1.2-3.7c-0.8-0.9-1.8-1.3-3.1-1.3c-1.2,0-2.2,0.5-3,1.5v-1.2h-2.5v13.3h2.5V157.7z M569.8,152.4
		c0.2-0.3,0.5-0.6,0.9-0.8c0.4-0.2,0.8-0.3,1.2-0.3c0.7,0,1.3,0.3,1.8,0.8c0.5,0.5,0.7,1.2,0.7,2c0,0.8-0.2,1.5-0.7,2
		c-0.5,0.5-1,0.8-1.8,0.8c-0.4,0-0.8-0.1-1.2-0.3c-0.4-0.2-0.7-0.5-1-0.8V152.4z M583.7,151.3c-0.9,0-1.6,0.4-2.2,1.1v6.5h-2.6
		v-13.3h2.6v4.9c0.9-1,2-1.5,3.4-1.5c1,0,1.8,0.3,2.3,0.8c0.5,0.5,0.8,1.3,0.8,2.2v6.9h-2.5V153
		C585.5,151.9,584.9,151.3,583.7,151.3z M597.7,149.9c-0.8-0.6-1.8-0.9-3-0.9c-1.7,0-3.1,0.5-4.2,1.5l1,1.8c0.8-0.8,1.8-1.1,2.8-1.1
		c0.6,0,1.2,0.1,1.5,0.4c0.4,0.3,0.6,0.7,0.6,1.2v1.2c-0.7-0.8-1.7-1.2-3.1-1.2c-0.9,0-1.7,0.3-2.3,0.8c-0.7,0.5-1,1.3-1,2.4
		c0,1,0.3,1.8,1,2.4c0.7,0.6,1.5,0.8,2.3,0.8c1.3,0,2.4-0.4,3.1-1.3v1h2.6v-6.2C598.9,151.4,598.5,150.4,597.7,149.9z M596.3,156.6
		c-0.4,0.6-1.1,0.8-2,0.8c-0.5,0-1-0.1-1.3-0.4c-0.3-0.3-0.5-0.6-0.5-1s0.2-0.8,0.5-1.1c0.3-0.3,0.8-0.4,1.3-0.4
		c0.9,0,1.6,0.3,2,0.9V156.6z M603.9,158.9h-2.5v-9.7h2.5v1.3c0.4-0.4,0.8-0.8,1.4-1.1c0.6-0.3,1.1-0.4,1.7-0.4v2.5
		c-0.2,0-0.4-0.1-0.7-0.1c-0.4,0-0.9,0.1-1.4,0.3c-0.5,0.2-0.8,0.5-1,0.8V158.9z M611.1,158.9h-2.5v-9.7h2.5v1.2
		c0.3-0.3,0.7-0.7,1.3-1c0.6-0.3,1.2-0.5,1.9-0.5c1.4,0,2.3,0.6,2.7,1.7c0.3-0.5,0.8-0.9,1.4-1.2c0.6-0.3,1.3-0.5,2-0.5
		c0.9,0,1.6,0.2,2.1,0.7c0.5,0.5,0.7,1.2,0.7,2.2v7h-2.6v-6.1c0-1-0.5-1.5-1.4-1.5c-0.4,0-0.8,0.1-1.2,0.3c-0.4,0.2-0.6,0.5-0.8,0.8
		v6.5h-2.6v-6.1c0-1-0.5-1.5-1.4-1.5c-0.8,0-1.5,0.4-2,1.1V158.9z M631.4,157.9v1h2.6v-6.2c0-1.3-0.4-2.2-1.2-2.8
		c-0.8-0.6-1.8-0.9-3-0.9c-1.7,0-3.1,0.5-4.2,1.5l1,1.8c0.8-0.8,1.8-1.1,2.8-1.1c0.6,0,1.2,0.1,1.5,0.4c0.4,0.3,0.6,0.7,0.6,1.2v1.2
		c-0.7-0.8-1.7-1.2-3.1-1.2c-0.9,0-1.7,0.3-2.3,0.8c-0.7,0.5-1,1.3-1,2.4c0,1,0.3,1.8,1,2.4c0.7,0.6,1.5,0.8,2.3,0.8
		C629.7,159.2,630.7,158.7,631.4,157.9z M627.6,156c0-0.4,0.2-0.8,0.5-1.1c0.3-0.3,0.8-0.4,1.3-0.4c0.9,0,1.6,0.3,2,0.9v1.2
		c-0.4,0.6-1.1,0.8-2,0.8c-0.5,0-1-0.1-1.3-0.4C627.8,156.8,627.6,156.4,627.6,156z M639.2,152c-0.5,0.5-0.7,1.2-0.7,2
		c0,0.8,0.2,1.5,0.7,2c0.5,0.5,1.1,0.8,1.9,0.8c0.9,0,1.5-0.4,2-1.1l1.7,1.6c-0.9,1.2-2.1,1.8-3.8,1.8c-1.5,0-2.7-0.5-3.7-1.4
		c-1-1-1.5-2.2-1.5-3.7c0-1.5,0.5-2.7,1.5-3.6s2.2-1.4,3.7-1.4c1.7,0,3,0.6,3.8,1.7l-1.7,1.6c-0.5-0.7-1.1-1-2-1
		C640.3,151.3,639.7,151.5,639.2,152z M655.6,149.3l-4.5,11.2c-0.3,0.9-0.8,1.4-1.4,1.8c-0.6,0.3-1.4,0.5-2.3,0.5
		c-0.5,0-0.9-0.1-1.2-0.2l0.4-2.3c0.2,0.1,0.5,0.2,0.8,0.2c0.7,0,1.1-0.2,1.3-0.7l0.4-0.8l-3.9-9.8h2.7l2.5,6.7l2.5-6.7H655.6z
		 M571.2,165.7c0.6-0.3,1.1-0.4,1.7-0.4v2.5c-0.2,0-0.4-0.1-0.7-0.1c-0.4,0-0.9,0.1-1.4,0.3c-0.5,0.2-0.8,0.5-1,0.8v6.4h-2.5v-9.7
		h2.5v1.3C570.2,166.4,570.6,166,571.2,165.7z M578.8,165.3c-1.4,0-2.6,0.5-3.6,1.5c-0.9,1-1.4,2.2-1.4,3.6c0,1.5,0.5,2.7,1.5,3.7
		c1,0.9,2.2,1.4,3.7,1.4c1.7,0,3-0.4,4-1.3l-1.1-1.7c-0.3,0.3-0.7,0.5-1.2,0.7c-0.5,0.2-1,0.3-1.4,0.3c-0.8,0-1.4-0.2-1.9-0.6
		c-0.5-0.4-0.8-0.9-0.9-1.5h7.2v-0.6c0-1.6-0.4-2.9-1.3-3.8C581.4,165.8,580.3,165.3,578.8,165.3z M576.5,169.4
		c0.1-0.6,0.3-1,0.7-1.5c0.4-0.4,1-0.6,1.7-0.6c0.8,0,1.3,0.2,1.7,0.6c0.4,0.4,0.6,0.9,0.7,1.4H576.5z M591.9,165.5h2.7l-3.9,9.7
		H588l-3.9-9.7h2.7l2.5,6.7L591.9,165.5z M598.1,161.9c0.3,0.3,0.4,0.6,0.4,1.1c0,0.4-0.1,0.8-0.4,1.1c-0.3,0.3-0.7,0.5-1.1,0.5
		c-0.4,0-0.8-0.1-1.1-0.5c-0.3-0.3-0.4-0.7-0.4-1.1c0-0.4,0.1-0.8,0.4-1.1c0.3-0.3,0.6-0.4,1.1-0.4
		C597.5,161.4,597.8,161.6,598.1,161.9z M595.8,165.5h2.5v9.7h-2.5V165.5z M605.2,165.3c-1.4,0-2.6,0.5-3.6,1.5
		c-0.9,1-1.4,2.2-1.4,3.6c0,1.5,0.5,2.7,1.5,3.7c1,0.9,2.2,1.4,3.7,1.4c1.7,0,3-0.4,4-1.3l-1.1-1.7c-0.3,0.3-0.7,0.5-1.2,0.7
		c-0.5,0.2-1,0.3-1.4,0.3c-0.8,0-1.4-0.2-1.9-0.6c-0.5-0.4-0.8-0.9-0.9-1.5h7.2v-0.6c0-1.6-0.4-2.9-1.3-3.8
		C607.8,165.8,606.7,165.3,605.2,165.3z M602.9,169.4c0.1-0.6,0.3-1,0.7-1.5c0.4-0.4,1-0.6,1.7-0.6c0.8,0,1.3,0.2,1.7,0.6
		c0.4,0.4,0.6,0.9,0.7,1.4H602.9z M623.4,165.5h2.7l-2.9,9.7h-2.7l-2-6.6l-2,6.6h-2.7l-2.9-9.7h2.6l1.8,6.5l2.1-6.5h2.3l2.1,6.5
		L623.4,165.5z M634.4,170.6c0.4,0.5,0.6,1,0.6,1.8c0,0.9-0.4,1.6-1.1,2.2c-0.7,0.6-1.8,0.9-3.1,0.9c-0.8,0-1.6-0.1-2.4-0.4
		c-0.8-0.3-1.4-0.6-1.9-1.1l1.1-1.8c0.4,0.4,0.9,0.7,1.5,0.9c0.6,0.3,1.2,0.4,1.8,0.4c1.1,0,1.6-0.3,1.6-1c0-0.2-0.1-0.4-0.4-0.6
		c-0.3-0.2-0.6-0.3-1.1-0.3c-0.4-0.1-0.9-0.2-1.4-0.3c-0.5-0.1-1-0.3-1.4-0.5c-0.4-0.2-0.8-0.5-1.1-0.9c-0.3-0.4-0.4-0.9-0.4-1.5
		c0-0.9,0.4-1.6,1.1-2.2c0.7-0.6,1.7-0.9,2.9-0.9c1.5,0,2.8,0.4,3.9,1.3l-1,1.8c-0.3-0.3-0.7-0.6-1.2-0.8c-0.5-0.2-1.1-0.3-1.6-0.3
		c-0.5,0-0.8,0.1-1.1,0.3c-0.3,0.2-0.4,0.4-0.4,0.7c0,0.3,0.2,0.5,0.6,0.6c0.4,0.1,0.9,0.3,1.4,0.4c0.6,0.1,1.1,0.3,1.7,0.4
		C633.5,169.8,634,170.1,634.4,170.6z M397.1,200c1.6,1.6,2.5,3.7,2.5,5.9c0,2.2-0.9,4.3-2.5,5.9c-1.6,1.6-3.7,2.5-5.9,2.5l-30.1,0
		c-2.2,0-4.3-0.9-5.9-2.4l-0.1-0.1c-1.6-1.6-2.5-3.7-2.5-5.9l0-30c0-4.6,3.8-8.4,8.4-8.4c2.2,0,4.3,0.9,5.9,2.5
		c1.6,1.6,2.5,3.7,2.5,5.9v21.8l21.8,0C393.5,197.6,395.6,198.5,397.1,200z"/>
</g>
</svg>
