<?xml version="1.0" encoding="utf-8"?>
<!-- Generator: Adobe Illustrator 19.0.0, SVG Export Plug-In . SVG Version: 6.00 Build 0)  -->
<svg version="1.1" id="Layer_1" xmlns="http://www.w3.org/2000/svg" xmlns:xlink="http://www.w3.org/1999/xlink" x="0px" y="0px"
	 viewBox="0 0 140 140" style="enable-background:new 0 0 140 140;" xml:space="preserve">
<style type="text/css">
	.st0{fill:#EDAB17;}
</style>
<path id="XMLID_4_" class="st0" d="M70,1C31.9,1,1,31.9,1,70c0,38.1,30.9,69,69,69c38.1,0,69-30.9,69-69C139,31.9,108.1,1,70,1z
	 M118.5,91.3c-8.3,0-16.5,0.2-24.8,0.2c-0.9,0-2.2,0-3.2,0c0,9,0,19,0,29c-14,0-27,0-41,0c0-10,0-20,0-29c-10,0-19.9,0-29.9,0
	c0-2,0-2.6,0-3.7c0-11.8,0-23.7,0-35.6c0-2.6,0-2.6,2.5-2.6c8.3,0,16.6-0.1,25,0c1.7,0,2.1-0.7,2.1-2.4c-0.1-9.1,0-17.8,0-27.8
	c13.9,0,27.4,0,41.4,0c0,1,0,1.6,0,2.2c0,8.7,0.2,17.4,0.2,26c0,1.5,0.5,1.9,2,1.9c8.6-0.1,17.2,0,25.7-0.1c1.4,0,2,0.3,2,1.9
	c-0.1,12.6,0,25.3,0,37.9C120.4,90.8,119.9,91.3,118.5,91.3z"/>
</svg>
