<?xml version="1.0" encoding="utf-8"?>
<!-- Generator: Adobe Illustrator 19.0.0, SVG Export Plug-In . SVG Version: 6.00 Build 0)  -->
<svg version="1.1" id="Layer_1" xmlns="http://www.w3.org/2000/svg" xmlns:xlink="http://www.w3.org/1999/xlink" x="0px" y="0px"
	 viewBox="0 0 140 140" style="enable-background:new 0 0 140 140;" xml:space="preserve">
<style type="text/css">
	.st0{fill:#94B948;}
</style>
<path id="XMLID_1_" class="st0" d="M86,74.4c0.3,1,0.5,1.9,0.8,3.1c-2.5,0.2-4.9,0.4-7.2,0.5c-0.3,0-0.7-0.4-0.8-0.6
	c-1-4.4-1.9-8.7-2.9-13.1c0-0.2,0-0.3,0-0.6c1.1-0.2,2.1-0.3,3.3-0.5c0.5,2.5,1.1,4.9,1.6,7.2c0.2,1.1,0.5,2.2,0.6,3.3
	c0.2,1.2,0.9,1.2,1.8,1.1C84.2,74.6,85.1,74.5,86,74.4z M74.9,71.9c-0.6-2.6-1.1-5.2-1.7-7.8c-1.2,0.1-2.2,0.2-3.6,0.3
	c1.1,4.9,2.1,9.7,3.2,14.5c0.9,0,1.7,0,2.4,0c0.8,0,1.1-0.4,0.9-1.2C75.7,75.8,75.3,73.9,74.9,71.9z M104.5,68.7
	c-1.1-0.9-2.4-1.6-3.6-2.5c-0.4-0.3-0.6-1-0.8-1.5c0.5-0.1,1.1-0.2,1.6-0.3c0.5-0.1,1.2-0.1,1.4-0.4c0.4-0.6,0.4-1.4,0.7-2.5
	c-1.5-0.2-2.7-0.4-4-0.4c-2.2,0-3.7,1.6-3.5,3.5c0.1,1.6,0.7,3.1,2.2,4.1c1.1,0.8,2.4,1.4,3.4,2.3c0.4,0.3,0.5,1.1,0.7,1.7
	c-0.6,0.2-1.2,0.4-1.8,0.5c-0.4,0-0.7-0.3-1.1-0.3c-0.2,0-0.7,0.1-0.8,0.3c-0.3,0.7-0.5,1.5-0.8,2.3c1.7,1.1,3.5,1.1,5.2,0.8
	c1.3-0.2,2.3-0.9,2.8-2.2C106.8,72.3,106.2,70.1,104.5,68.7z M69.8,76.6c-0.2,1.4-1.4,2.5-3.2,2.9c-1.5,0.2-3,0.4-4.5,0.5
	c-0.3,0-0.9-0.3-1-0.6c-1.1-4.6-2-9.2-3.1-14.2c2.2,0,4,0,5.9,0c1.6,0.1,2.8,0.9,3.4,2.3c0.6,1.3,0.6,2.6-0.5,3.8
	c0.2,0.2,0.4,0.4,0.6,0.5C69.2,72.6,70.1,74.4,69.8,76.6z M62.7,70.6c1,0,1.8-0.2,1.6-1.3c-0.2-1.3-1.1-1.3-2.2-1
	C62.3,69.1,62.5,69.9,62.7,70.6z M66.1,74.4c-0.6-1.2-1.5-1.3-2.9-1c0.2,0.9,0.3,1.6,0.5,2.4c0,0.2,0,0.4,0.1,0.5
	c0.2,0.2,0.5,0.6,0.7,0.6C65.9,76.9,66.7,75.6,66.1,74.4z M92.8,73.9c-0.7,0.1-1-0.1-1.2-0.8c-0.5-2.6-1.1-5.2-1.7-7.8
	c-0.7-3.1-0.7-3.1-4.1-2.4c0,0.2,0,0.3,0,0.5c1,4.4,1.9,8.8,2.9,13.2c0.1,0.3,0.7,0.7,1,0.7c2.3-0.2,4.6-0.4,7-0.6
	c-0.2-1-0.4-1.9-0.6-3C95,73.8,93.9,73.8,92.8,73.9z M117.4,69.9c0.2,26-20.8,47.7-47.2,47.8c-26.4,0.1-47.4-21.1-47.6-46.9
	c-0.3-27.6,21.1-47.3,45.1-48.3C96.3,21.3,117.4,43.8,117.4,69.9z M53.4,108.5c-6.3-11-12.6-21.9-18.9-32.9c-2.6,0.8-5,1.5-7.7,2.3
	c8.9,10.3,17.7,20.5,26.5,30.7C53.3,108.6,53.4,108.6,53.4,108.5z M57.7,110.1c-3.7-15.8-7.4-31.5-11.2-47.4
	c-4.6,0.8-8.9,1.6-13.5,2.3c8.2,15.3,16.3,30.2,24.4,45.2C57.5,110.2,57.6,110.1,57.7,110.1z M112.7,66.5
	c-0.6-9.4-4.4-17.8-10.8-24.8c-0.3-0.3-0.9-0.6-1.3-0.6c-2.6,0.2-5.3,0.6-7.9,0.8c-6.2,0.6-12.4,1.2-18.5,1.8
	c-7.1,0.7-14.3,1.4-21.4,2.1c-1.9,0.2-3.9,0.4-5.8,0.6c0,0.3,0,0.5,0,0.7c1.3,5.7,2.6,11.4,3.9,17.2c1.1,5,2.2,9.9,3.4,14.9
	c1.4,6.1,2.7,12.1,4.1,18.2c1,4.3,2,8.6,2.9,12.9c0.2,1.2,0.7,1.7,1.9,1.9c4,0.6,8,0.7,12.1,0.3c5.9-0.7,11.4-2.4,16.5-5.4
	C106.5,97.8,113.8,84.2,112.7,66.5z M139,70c0,38.1-30.9,69-69,69c-38.1,0-69-30.9-69-69C1,31.9,31.9,1,70,1
	C108.1,1,139,31.9,139,70z M127,69.9c0.1-14.8-6-29.7-16.8-40.1C99,18.9,85.5,13.2,69.9,13.2c-15.1,0-28.3,5.4-39.3,15.8
	C19.4,39.5,13.4,52.6,13,67.8c-1,32.8,24.5,58.9,57,59C101.1,126.9,126.9,102,127,69.9z"/>
</svg>
