<?xml version="1.0" encoding="utf-8"?>
<!-- Generator: Adobe Illustrator 19.0.0, SVG Export Plug-In . SVG Version: 6.00 Build 0)  -->
<svg version="1.1" id="Layer_1" xmlns="http://www.w3.org/2000/svg" xmlns:xlink="http://www.w3.org/1999/xlink" x="0px" y="0px"
	 viewBox="0 0 140 140" style="enable-background:new 0 0 140 140;" xml:space="preserve">
<style type="text/css">
	.st0{fill:#EDAB17;}
</style>
<path id="XMLID_1_" class="st0" d="M70,1C31.9,1,1,31.9,1,70s30.9,69,69,69c38.1,0,69-30.9,69-69S108.1,1,70,1z M118.5,62.6
	c-0.4,3.6-1.3,7-2.7,10.3c-1.7,4.2-4,8.2-6.7,11.9c-2.3,3.2-4.8,6.1-7.5,8.9c-4.2,4.3-8.7,8.3-13.4,12c-3.8,2.9-7.7,5.7-11.8,8.3
	c-1.4,0.9-2.8,1.7-4.1,2.5c-0.5,0.3-0.9,0.5-1.4,0.8c0,0-0.1,0-0.2,0c-1.4-0.8-2.9-1.6-4.3-2.5c-3.4-2.1-6.6-4.2-9.8-6.5
	c-4.9-3.5-9.6-7.4-14-11.5c-3.1-2.9-6-6-8.6-9.3c-1.6-1.9-3-4.2-4.4-6.3c-0.4-0.6-0.8-1.2-1.2-2.2c0.2,0,0.3,0,0.4,0
	c6.2,0,12.4,0.2,18.6,0.2c0.2,0,0.3,0,0.4-0.2c1-2.8,1.9-5.4,2.9-8.2c0-0.1,0.1-0.1,0.1-0.2c2,7.6,3.9,15.2,5.9,22.9
	c0,0,0.1-0.1,0.1-0.1c2.2-11.1,4.5-22.4,6.7-33.4c0,0,0,0,0,0c2.8,16,5.6,31.6,8.4,47.3c0,0,0.1,0.1,0.1,0.1
	c2.5-11.2,5-22.3,7.4-33.5c0,0,0,0,0,0c1.4,6.2,2.8,12.3,4.2,18.5c0,0,0.1-0.1,0.1-0.1c1.5-4.8,3.1-9.3,4.6-14.3c0.2,0,0.3,0,0.5,0
	c2.9,0,5.9,0.1,8.8,0.1c0.2,0,0.3,0.1,0.4,0.3c0.7,2.1,2.8,3.8,5.5,3.5c2.2-0.3,4.1-2,4.5-4.3c0.5-2.9-1.6-5.6-4.5-5.9
	c-2.6-0.3-4.7,1.2-5.4,3.4c-0.1,0.2-0.2,0.3-0.4,0.3c-3.7,0-7.3,0-11,0c-0.2,0-0.3,0.1-0.4,0.3c-0.6,2-1.3,4-1.9,6
	c0,0.1-0.1,0.1-0.1,0.3c-0.1-0.4-0.2-0.8-0.3-1.1c-0.4-1.9-0.9-3.9-1.3-5.8c-0.6-2.5-1.2-5.1-1.7-7.6c-0.4-1.7-0.8-3.5-1.2-5.2
	c-0.1-0.2-0.1-0.4-0.2-0.7c0-0.1-0.1-0.1-0.1-0.2c0,0-0.1,0.1-0.1,0.1c-0.5,2.1-0.9,4.1-1.4,6.2c-0.5,2.1-0.9,4.2-1.4,6.2
	c-0.6,2.8-1.2,5.6-1.9,8.4c-0.5,2.1-0.9,4.2-1.4,6.4c-0.3,1.5-0.7,3-1,4.5c0,0,0,0.1-0.1,0.2c-2.9-16-5.7-32-8.6-47.9
	c0,0-0.1,0-0.1,0c-2.4,11.9-4.8,23.7-7.2,35.6c0,0,0,0-0.1,0c-1.7-6.7-3.4-13.3-5.1-20c0,0-0.1,0.2-0.1,0.2
	c-1.8,5.2-3.7,9.8-5.5,15.8c-0.2,0-0.4,0-0.5,0c-6,0-12-0.2-18-0.2c-0.2,0-0.3-0.2-0.4-0.4c-1.6-3.2-2.8-6.6-3.6-10.1
	c-0.6-3-0.9-6.1-0.7-9.1c0.4-5.7,2.5-10.8,6.1-15.3c1.9-2.3,4.1-4.3,6.6-5.8c2-1.3,4.2-2.2,6.5-2.9c1.4-0.4,2.8-0.7,4.2-0.9
	c1.9-0.2,3.7-0.3,5.6-0.2c1.6,0.1,3.2,0.4,4.7,0.8c1.6,0.4,3.2,1,4.7,1.7c2.9,1.4,5.5,3.2,7.7,5.4c0.5,0.5,1,1.1,1.5,1.6
	c0.1,0.1,0.1,0.2,0.2,0.3c0.4-0.5,0.8-0.9,1.2-1.4c2.4-2.6,5.2-4.6,8.4-6.2c1.9-0.9,4-1.6,6.1-2c2.9-0.6,5.7-0.7,8.7-0.3
	c4.2,0.5,8.1,1.9,11.7,4.3c3.9,2.6,7,6,9.2,10.2c1.3,2.6,2.2,5.3,2.7,8.2C118.8,57.3,118.8,59.9,118.5,62.6z"/>
</svg>
