<?xml version="1.0" encoding="utf-8"?>
<!-- Generator: Adobe Illustrator 19.0.0, SVG Export Plug-In . SVG Version: 6.00 Build 0)  -->
<svg version="1.1" id="Layer_1" xmlns="http://www.w3.org/2000/svg" xmlns:xlink="http://www.w3.org/1999/xlink" x="0px" y="0px"
	 viewBox="-459.4 260.8 41 41" style="enable-background:new -459.4 260.8 41 41;" xml:space="preserve">
<style type="text/css">
	.st0{fill:#C4C4C4;}
</style>
<path id="XMLID_1_" class="st0" d="M-438.9,261.8c-10.9,0-19.7,8.7-19.7,19.5s8.8,19.5,19.7,19.5s19.7-8.7,19.7-19.5
	S-428,261.8-438.9,261.8z M-438.9,298.8c-9.7,0-17.6-7.8-17.6-17.5c0-9.6,7.9-17.5,17.6-17.5s17.6,7.8,17.6,17.5
	S-429.2,298.8-438.9,298.8z M-429,275.4c-0.1,0.1-0.5,0.6-1,1.1c-0.8,0.8-0.9,0.9-0.9,1.5c0,1-0.5,3.1-1,4.3
	c-0.9,2.2-2.9,4.4-4.8,5.6c-2.8,1.6-6.4,2-9.5,1.1c-1-0.3-2.8-1.1-2.8-1.3c0,0,0.5-0.1,1.2-0.1c1.4,0,2.7-0.4,3.9-1.1l0.8-0.5
	l-0.9-0.3c-1.3-0.4-2.4-1.4-2.7-2.3c-0.1-0.3-0.1-0.3,0.8-0.3h0.8l-0.7-0.3c-0.8-0.4-1.6-1.1-2-1.8c-0.3-0.5-0.6-1.8-0.5-1.9
	c0,0,0.3,0,0.7,0.2c1,0.4,1.1,0.3,0.6-0.3c-1.1-1.1-1.4-2.7-0.9-4.2l0.2-0.7l1,0.9c2,1.9,4.3,3,6.9,3.3l0.7,0.1v-0.7
	c-0.1-1.8,1-3.5,2.8-4.1c0.7-0.2,1.8-0.3,2.5-0.1c0.3,0.1,0.8,0.4,1.2,0.6l0.7,0.5l0.8-0.2c0.4-0.1,1-0.3,1.3-0.5
	c0.2-0.1,0.5-0.2,0.5-0.2c0,0.2-0.5,1.1-1,1.5c-0.6,0.6-0.4,0.7,0.8,0.3C-428.9,275.1-428.8,275.1-429,275.4z"/>
</svg>
