<?xml version="1.0" encoding="utf-8"?>
<!-- Generator: Adobe Illustrator 19.0.0, SVG Export Plug-In . SVG Version: 6.00 Build 0)  -->
<svg version="1.1" id="Layer_1" xmlns="http://www.w3.org/2000/svg" xmlns:xlink="http://www.w3.org/1999/xlink" x="0px" y="0px"
	 viewBox="-457.8 260.5 41 41" style="enable-background:new -457.8 260.5 41 41;" xml:space="preserve">
<style type="text/css">
	.st0{fill:#C4C4C4;}
</style>
<path id="XMLID_1_" class="st0" d="M-437.3,261.5c-10.9,0-19.7,8.7-19.7,19.5s8.8,19.5,19.7,19.5s19.7-8.7,19.7-19.5
	S-426.4,261.5-437.3,261.5z M-437.3,298.5c-9.8,0-17.7-7.9-17.7-17.5s7.9-17.5,17.6-17.5c9.7,0,17.6,7.8,17.6,17.5
	C-419.7,290.6-427.6,298.5-437.3,298.5z M-446.1,277h4v12h-4V277z M-441.7,272.9c0,1.2-0.9,2.1-2.3,2.1l0,0c-1.4,0-2.2-1-2.2-2.1
	c0-1.2,0.9-2.1,2.3-2.1C-442.6,270.8-441.7,271.7-441.7,272.9z M-427.1,281.8v7.2h-4v-6.8c0-1.6-0.8-2.7-2.3-2.7
	c-1.1,0-2,0.7-2.3,1.5c-0.1,0.3-0.4,0.6-0.4,1v7h-3.6c0,0,0.1-11,0-12h3.6v1.3c1-0.8,1.8-2,4-2C-429.5,276.3-427.1,278-427.1,281.8z
	"/>
</svg>
