<?xml version="1.0" encoding="utf-8"?>
<!-- Generator: Adobe Illustrator 19.0.0, SVG Export Plug-In . SVG Version: 6.00 Build 0)  -->
<svg version="1.1" id="Layer_1" xmlns="http://www.w3.org/2000/svg" xmlns:xlink="http://www.w3.org/1999/xlink" x="0px" y="0px"
	 viewBox="0 0 140 140" style="enable-background:new 0 0 140 140;" xml:space="preserve">
<style type="text/css">
	.st0{fill:#1EA2D2;}
</style>
<path id="XMLID_1_" class="st0" d="M61.6,47.5c0,2-1.7,3.7-3.8,3.7c-2,0-3.7-1.8-3.7-3.8c0.1-2,1.8-3.7,3.8-3.7
	C60,43.7,61.6,45.4,61.6,47.5z M139,70c0,38.1-30.9,69-69,69c-38.1,0-69-30.9-69-69C1,31.9,31.9,1,70,1C108.1,1,139,31.9,139,70z
	 M53.4,70.7c10-0.1,20.1,0,30.1,0c1.8,0,1.9-0.1,1.9-1.8c0-14,0-28,0-42c0-0.6-0.3-1.7-0.5-1.7c-17.9,0-35.8,0-53.7,0
	c-0.2,0-0.6,1.1-0.6,1.8c0,10.9,0,21.6,0,32.5c0,3.3,0,6.5,0,9.8c0,1,0.4,1.4,1.4,1.4c1.1,0,2.2,0,3.4,0c-0.1,0.7-0.1,1.1-0.2,1.6
	c-0.2,2.4-0.5,4.7-0.7,7.1c0,0.5,0.3,1,0.4,1.5c0.5-0.1,1-0.2,1.4-0.4c4.8-3,9.6-6,14.5-9C51.5,71,52.5,70.7,53.4,70.7z M82.2,78.4
	c-1.9,0-3.5,1.6-3.6,3.5c0,2,1.5,3.6,3.4,3.6c1.9,0.1,3.6-1.5,3.6-3.5C85.7,80.1,84.1,78.4,82.2,78.4z M69.5,78.4
	c-1.9,0-3.5,1.6-3.5,3.6c0,2,1.6,3.6,3.5,3.6c1.9,0,3.5-1.6,3.5-3.6C73.1,80,71.5,78.4,69.5,78.4z M109.5,103.3
	c0-14.1-0.1-28.3-0.1-42.4c0-1.7-0.2-1.8-1.9-1.8c-5.7,0-11.5,0-17.2,0c-0.4,0-0.5,0-1.5,0.1c0,1.5,0,3,0,5c6,0,11,0,16,0
	c0,12,0,24,0,36c-2,0-3.5,0-5.2,0c0.2,3,0.4,4.4,0.6,6.8c-0.8-0.5-1.4-0.6-1.9-0.9c-2.6-1.6-5.2-3.3-7.8-4.9
	c-0.7-0.4-1.6-0.8-2.5-0.8c-9,0-18-0.2-27-0.2c-0.5,0-1.2,0-2.2,0c0-8,0-17,0-26c-1,0-2.7,0-4.2,0c0,1-0.1,0.8-0.1,1.1
	c0,9.3,0,18.8,0,28.1c0,1.3,0.5,1.7,1.8,1.7c9,0,18,0,27-0.1c3.1,0,5.8,0.4,8.4,2.2c4.1,2.9,8.4,6,12.7,8c0.2,0,0.4,0,0.6,0
	c1.1-1,0.5-2,0.5-3c-0.2-2.4-0.5-4.6-0.7-7.1c1.1,0,2.1-0.1,3.1,0C109.1,105.1,109.5,104.6,109.5,103.3z M94.7,85.6
	c1.9,0,3.5-1.6,3.6-3.6c0-1.9-1.6-3.6-3.5-3.6c-1.9,0-3.6,1.5-3.6,3.5C91.1,83.9,92.7,85.6,94.7,85.6z M74.2,47.5
	c0-2-1.7-3.7-3.7-3.8c-2,0-3.7,1.7-3.8,3.7c0,2,1.7,3.8,3.7,3.8C72.4,51.2,74.1,49.5,74.2,47.5z M45.3,43.7c-2,0-3.7,1.6-3.8,3.7
	c0,2,1.6,3.8,3.7,3.8c2,0,3.7-1.6,3.7-3.7C49,45.4,47.4,43.7,45.3,43.7z"/>
</svg>
