<?xml version="1.0" encoding="utf-8"?>
<!-- Generator: Adobe Illustrator 19.0.0, SVG Export Plug-In . SVG Version: 6.00 Build 0)  -->
<svg version="1.1" id="Layer_1" xmlns="http://www.w3.org/2000/svg" xmlns:xlink="http://www.w3.org/1999/xlink" x="0px" y="0px"
	 viewBox="0 0 140 140" style="enable-background:new 0 0 140 140;" xml:space="preserve">
<style type="text/css">
	.st0{fill:#DB3C40;}
</style>
<path id="XMLID_1_" class="st0" d="M70,1C31.9,1,1,31.9,1,70c0,38.1,30.9,69,69,69c38.1,0,69-30.9,69-69C139,31.9,108.1,1,70,1z
	 M105.9,65.1c0,8.7-0.1,17.3-0.3,26c-0.3,13.3-6.6,23-18.5,28.9c-11.2,5.6-25.1,3.5-34.5-4.8c-7.2-6.4-10.8-14.5-11-24.1
	c0-1.8-0.7-3.2-2.2-4.2c-1.5-1.1-3.2-2.1-4.6-3.3c-3-2.5-3.8-6-3.9-9.7c0-1.2,0-2.4,0-3.6c0-2.4-0.9-4.3-2.8-5.7
	c-4.5-3.6-7.1-8.3-7.7-14c-0.7-6.4,1.9-11.4,6.6-15.5c1.9-1.7,4.2-2.8,6.7-3.6c0.3-0.1,0.7-0.5,0.7-0.9c0.4-2,1.9-3.4,3.7-3.3
	c1.9,0.2,3.2,1.7,3.2,3.8c0,2.1,0,4.2,0,6.3c0,2-1.1,3.4-2.9,3.8c-1.5,0.3-3-0.6-3.8-2.3c0-0.1-0.1-0.2-0.2-0.3
	c-5.1,1.6-8.2,7.5-7,13c0.7,3.2,2.4,5.7,5,7.8c3.4,2.7,5.2,6.4,5.3,10.8c0,1.2,0,2.4,0,3.7c0,2.5,1,4.5,3.1,5.9
	c0.4,0.3,0.8,0.5,1.2,0.8c1,0.6,1.9,1.7,2.9,1.7c1,0,1.9-1.2,2.9-1.7c3.2-1.6,4.5-4.2,4.3-7.7c-0.2-3.4,0.1-6.8,2.1-9.7
	c0.9-1.3,2.1-2.6,3.3-3.7c3.5-2.9,5.3-6.6,5.2-11.2c-0.1-3.8-3.5-8.3-7.2-9.5c-0.1,0.2-0.3,0.5-0.4,0.7c-0.8,1.4-2.2,2.2-3.6,1.9
	c-1.6-0.3-2.8-1.6-2.9-3.2c-0.1-2.5-0.1-5,0-7.4c0.1-1.8,1.6-3.2,3.3-3.3c1.6-0.1,3.3,1.2,3.5,2.9c0.1,0.9,0.5,1.1,1.2,1.4
	c7.5,2.8,12.3,7.9,12.9,16c0.6,6.8-2.3,12.5-7.6,16.8c-2,1.7-3,3.6-3,6.2c-0.1,2.7-0.2,5.4-0.8,8c-0.6,3-2.8,5-5.3,6.6
	c-0.4,0.3-0.8,0.5-1.2,0.8c-2.8,1.4-3.5,3.7-3.4,6.6c0.6,12.2,10.6,22.5,22.8,23.4c15,1.2,27.1-10.1,27.1-25.1c0-9.1,0-18,0-27.1
	c0-0.3,0-0.7,0.1-0.7c2.3,0,4.3,0,7.3,0C105.9,63.1,105.9,64.3,105.9,65.1z M102,59c-9.7,0-17.7-8-17.6-17.7c0-9.6,8-17.6,17.6-17.5
	c9.6,0,17.6,8,17.6,17.6C119.6,51,111.7,59,102,59z M102,30.6c-6,0-10.8,4.8-10.8,10.7c0,6.1,4.7,10.9,10.8,10.9
	c6,0,10.8-4.7,10.8-10.7C112.8,35.4,108.1,30.6,102,30.6z M101.9,48.4c-3.8,0-7-3.3-7-7c0-3.8,3.3-7.1,7.1-7c3.8,0.1,7,3.3,7,7.1
	C109,45.2,105.8,48.5,101.9,48.4z"/>
</svg>
