<?xml version="1.0" encoding="utf-8"?>
<!-- Generator: Adobe Illustrator 19.0.0, SVG Export Plug-In . SVG Version: 6.00 Build 0)  -->
<svg version="1.1" id="Layer_1" xmlns="http://www.w3.org/2000/svg" xmlns:xlink="http://www.w3.org/1999/xlink" x="0px" y="0px"
	 viewBox="-409 211 140 140" style="enable-background:new -409 211 140 140;" xml:space="preserve">
<style type="text/css">
	.st0{fill:#94B948;}
</style>
<path id="XMLID_1_" class="st0" d="M-336.9,273.1c0.7,0.6,1.1,1.6,1.1,2.6s-0.4,1.9-1.1,2.4c-0.7,0.6-1.7,0.9-2.8,0.9h-6.1v-7h6.1
	C-338.6,272-337.6,272.5-336.9,273.1z M-278.3,265h-10.2l-10.7,28.4l-10.7-28.4h-10.2l-11.8,32h9.2l1.5-5h12.4l1.5,5h6.9h2.2h6.9
	l1.5-5h12.4l1.5,5h3.9c-7.1,30-34.5,53.1-67.2,53.1c-38.1,0-69-31.1-69-69.2s30.9-69,69-69s69,30.9,69,69c0,2-0.1,3.8-0.2,5.8
	L-278.3,265z M-370.8,265h-8v12h-13v-12h-9v32h9v-13h13v13h8V265z M-358.8,265h-8v32h8V265z M-327.6,275.6c0-3-1-5.5-2.9-7.5
	s-4.6-3.1-8-3.1h-15.3v32h8v-11h7.3c3.4,0,6-1,8-3C-328.6,281.1-327.6,278.5-327.6,275.6z M-311,285l-4-11.8l-4,11.8H-311z
	 M-279.5,285l-3.9-11.8l-4,11.8H-279.5z"/>
</svg>
