<?xml version="1.0" encoding="utf-8"?>
<!-- Generator: Adobe Illustrator 19.0.0, SVG Export Plug-In . SVG Version: 6.00 Build 0)  -->
<svg version="1.1" id="Layer_1" xmlns="http://www.w3.org/2000/svg" xmlns:xlink="http://www.w3.org/1999/xlink" x="0px" y="0px"
	 viewBox="-409 211 140 140" style="enable-background:new -409 211 140 140;" xml:space="preserve">
<style type="text/css">
	.st0{fill:#DB3C40;}
</style>
<path id="XMLID_1_" class="st0" d="M-313.5,287.3c1.9-0.2,3.9-0.2,6.1-0.4c-0.1,1.4-0.1,2.6-0.4,3.7c-0.4,1.8-1.6,3.1-3.4,3.7
	c-1.9,0.6-3.8,0.8-5.7,0c-1.8-0.7-2.6-2.2-2.2-3.9c0.3-1.1,1-1.7,1.9-2.2C-316,287.7-314.8,287.4-313.5,287.3z M-270,281
	c0,38.1-30.9,69-69,69s-69-30.9-69-69s30.9-69,69-69S-270,242.9-270,281z M-379.8,253.9c0.3,0,0.5,0,0.7,0c-0.1-0.4-0.2-0.7-0.3-1.1
	h-0.1C-379.6,253.2-379.7,253.5-379.8,253.9z M-380.9,257.5c1,0,1.9,0,2.8,0c-0.3-2-0.3-1.5-1.6-1.5c-0.1,0-0.3-0.2-0.4-0.1
	c-0.1,0-0.3,0.2-0.3,0.3C-380.7,256.5-380.8,256.5-380.9,257.5z M-382,260.5c1.7,0,3.3,0,4.9,0c-0.1-1-0.2-0.9-0.4-1.3
	c0-0.1-0.2-0.2-0.3-0.2c-1.2,0-2.3,0-3.5,0c-0.1,0-0.3,0.1-0.3,0.2C-381.7,259.6-381.9,259.5-382,260.5z M-383.1,263.5
	c2.3,0,4.7,0,7,0c-0.2,0-0.3-1-0.5-1c-1.6,0-3.2,0-4.8,0C-382.7,262.5-382.7,262.3-383.1,263.5
	C-383.1,263.6-383.1,263.5-383.1,263.5z M-384.2,266.5c3.1,0,6.1,0,9.2,0c-0.1,0-0.2-0.6-0.4-0.9c-0.1-0.1-0.3-0.1-0.4-0.1
	c-2.5,0-5-0.1-7.6-0.1c-0.1,0-0.4,0-0.4,0.1C-383.9,265.9-384,266.5-384.2,266.5z M-385.3,270.5c3.8,0,7.5,0,11.3,0
	c-0.1-1-0.2-0.9-0.3-1.2c-0.1-0.3-0.2-0.5-0.5-0.5c-3.2,0-6.4,0-9.6,0.1c-0.1,0-0.4,0.2-0.4,0.3C-385,269.5-385.1,269.5-385.3,270.5
	z M-395.5,307.6v-0.1c-0.4,0-0.9,0-1.3,0c-0.1,0-0.2,0.1-0.3,0.1c-0.2,0.5-0.3,0.9-0.5,1.5C-396.7,308.6-396.1,308.1-395.5,307.6z
	 M-391.1,304.4v-0.1c-1.5,0-3.1,0-4.6,0c-0.1,0-0.3,0.1-0.3,0.2c-0.1,0.4-0.3,0.8-0.4,1.2c1.2,0,2.3,0,3.4,0c0.1,0,0.2-0.1,0.3-0.1
	C-392.2,305.2-391.6,304.8-391.1,304.4z M-386.7,301.1c-2.6-0.1-5.3-0.1-7.9,0c-0.1,0-0.3,0.1-0.3,0.2c-0.2,0.4-0.3,1.2-0.4,1.2
	c0.3,0,0.5,0,0.7,0c1.8,0,3.5-0.1,5.3,0C-388.1,302.6-387.6,301.7-386.7,301.1z M-382.3,297.9L-382.3,297.9
	c-3.8-0.1-7.5-0.1-11.3-0.1c-0.1,0-0.3,0.1-0.3,0.2c-0.2,0.4-0.3,0.8-0.4,1.2c0.1,0,0.2,0,0.2,0c3.2,0,6.4,0,9.7,0
	c0.1,0,0.3-0.1,0.4-0.1C-383.4,298.8-382.8,298.4-382.3,297.9z M-369.8,302.6c1.5,0,3.1-0.1,4.6-0.1c0.5,0,1.1,0,1.7,0
	c-0.1,0-0.2-0.5-0.3-0.8c-0.1-0.5-0.3-0.5-0.8-0.4c-2.3,0-4.7,0.2-7,0.2c-0.2,0-0.4,0-0.5,0c0.4,0,0.9,0.6,1.4,0.9
	C-370.5,302.6-370.2,302.6-369.8,302.6z M-362.5,305.8c-0.1-0.3-0.2-0.5-0.2-0.8c-0.1-0.5-0.3-0.6-0.9-0.6c-1.2,0-2.5,0.1-3.7,0.1
	c-0.2,0-0.3,0-0.5,0l0,0c0.6,0.4,1.2,1,1.9,1.2C-364.9,305.9-363.7,305.8-362.5,305.8z M-361.4,309c-0.1-0.4-0.3-0.9-0.4-1.3
	c0-0.1-0.2-0.2-0.3-0.2c-0.4,0-0.9,0-1.3,0v0.1C-362.8,308.1-362.2,308.6-361.4,309C-361.5,309.1-361.4,309-361.4,309z
	 M-348.5,271.5c-2,0-4,0-7,0c0,1,0,0.9,0,1.1c0,4.5,0.1,9,0.1,13.6c0,0.6,0.1,1.2,0,1.8c-0.3,3.1-2.1,5.5-5.6,5.8
	c-2.5,0.2-4.2-0.9-5-3.2c-0.5-1.6-0.6-3.3-0.6-4.9c0-4.4,0-8.7,0-13.1c0-0.2,0-0.4,0-0.6c0,0-0.4,0-0.6,0c-6.1,0-12.2,0-18.3,0
	c-0.1,0-0.2,0-0.2,0c-0.1,0.1-0.3,0.2-0.4,0.3c-0.2,0.4-0.3,0.2-0.4,1.2c4.3,0,8.9,0,12.9,0c0,1,0,1,0,2c-11,0-22.1,0-33.3,0
	c0.5,0,0.9,0.5,1.2,0.8c0.4,0.4,0.9,0.3,1.5,0.3c10,0,20-0.1,29.9-0.1c0.2,0,0.6,0,0.6,0c0,1,0,1,0,2c-10,0-19.3,0-29,0
	c0.5,0,0.9,0.6,1.3,0.9c0.4,0.3,0.7,0.3,1.2,0.3c8.6,0,17.2-0.2,25.8-0.2c0.2,0,0.6,0,0.6,0c0,1,0,2,0,2c-8,0-16.4,0-24.7,0
	c0.5,1,0.9,0.9,1.3,1.2c0.4,0.3,0.8,0.6,1.2,0.6c7.2,0,14.4,0.2,21.5,0.2c0.2,0,0.6,0,0.6,0v1c-7,0-13.5,0-20.3,0
	c0.4,1,0.8,0.9,1.1,1.2c0.4,0.4,0.8,0.7,1.4,0.7c5.7,0,11.4,0.1,17.1,0.1c0.2,0,0.6,0,0.6,0s0,1,0,2c0,0-0.4,0-0.6,0
	c-4.5,0-8.9,0-13.4,0c-0.9,0-1.8-0.2-2.7-0.2c-0.2,0-0.4-0.1-0.5,0c-0.2,0.4-0.3,1.2-0.4,1.2c5.9,0,11.8,0,17.6,0c0,1,0.1,1,0.1,2
	c-0.3,0-0.5,0-0.7,0c-4.3,0-8.6,0-12.9,0c-1.5,0-2.9-0.2-4.4-0.1c-0.2,0-0.4-0.1-0.5,0c-0.2,0.4-0.3,1.1-0.4,1.1
	c6.4,0,12.8,0,19.1,0c0.2,1,0.4,1,0.6,2c-6.8,0-13.5,0-20.3,0c-0.2,1-0.3,1-0.5,2c0.3,0,0.5,0,0.7,0c4.8,0,9.5,0,14.3,0
	c2,0,4.1-0.3,6.1-0.3c0.2,0,0.4-0.3,0.5-0.2c0.5,0.5,0.9,1.5,1.4,1.5c-2.2,0-4.3,0-6.5,0c0.6,1,1,0.9,1.5,1.3
	c0.3,0.3,0.7,0.5,1.1,0.5c2,0,4.1,0,6.1,0c0.2,0,0.5,0,0.7,0.1c1.6,0.5,3.2,0.7,4.9,0.5c3.2-0.3,5.8-1.7,7.3-4.7
	c0.1-0.1,0.2-0.2,0.3-0.3h0.3c0,1.4,0,2.5,0,4.5c2,0,4,0,6,0C-348.5,290.5-348.5,281.5-348.5,271.5z M-328.2,277.8
	c0.7,0.1,1.4,0.2,2.2,0.4c0-2.1,0-4.1,0-6.1c0-0.4-0.2-0.5-0.5-0.6c-3.8-1-7.9,0.8-9.8,4.3c-0.1,0.1-0.1,0.3-0.2,0.4l0,0
	c0-1.4,0-2.7,0-4.7c-3,0-5,0-7,0c0,10,0,19,0,28c2,0,4,0,7,0c0,0,0-0.7,0-0.9c0-4.6-0.1-9.1-0.1-13.7c0-2.2,0.6-4.1,2.3-5.5
	C-332.5,277.9-330.4,277.6-328.2,277.8z M-301,283c0-1.2-0.1-2.4-0.3-3.6c-0.6-3.9-2.8-6.5-6.6-7.6c-2-0.6-4-0.7-6-0.6
	c-2.7,0.2-5.2,0.8-7.6,2.2c-1,0.6-1.9,1.3-2.7,2.1c1.2,1.2,2.4,2.4,3.6,3.6l0.1,0.1v0.2h-0.2c0.1,0,0.2-0.3,0.3-0.4
	c1.3-1.1,2.8-2,4.4-2.4c2.2-0.5,4.4-0.5,6.4,0.6c1.8,0.9,2.7,3.1,2.3,5c-0.3,0-0.6,0-0.8,0c-2.9,0-5.9,0-8.8,0.6
	c-2.2,0.4-4.3,1.1-6.2,2.4c-3.9,2.8-4.4,9.8,0.3,12.8c2.4,1.6,5,2.1,7.8,1.8c3.1-0.3,5.5-1.6,7.3-4.2c0.1-0.1,0.1-0.1,0.1-0.3
	c0,1.4,0,3.1,0,4.1c2,0,4.4,0,6.5,0c0,0,0-0.5,0-0.6C-301,293.6-301,288.3-301,283z M-273.1,296.2c-1.6-1.7-3.1-3.3-4.6-4.9
	c-0.4,0.4-0.8,0.8-1.1,1.1c-2.4,1.9-6.1,1.9-8.8,0.1c-3.7-2.6-4.6-8.1-1.9-11.9c2.1-2.9,7.1-4.8,10.8-1.2c0.3,0.3,0.5,0.5,0.8,0.7
	c1.6-1.6,3.1-3.1,4.8-4.8c-0.9-0.7-1.7-1.4-2.6-2c-3.4-2.1-7.1-2.5-10.9-1.7c-3.7,0.8-6.8,2.7-8.9,5.9c-1.9,2.8-2.6,6-2.3,9.3
	c0.3,4,1.9,7.3,5,9.8c5,4,12.1,4.5,17.9,0.9C-274.3,297.2-273.7,296.7-273.1,296.2z"/>
</svg>
