<?xml version="1.0" encoding="utf-8"?>
<!-- Generator: Adobe Illustrator 19.0.0, SVG Export Plug-In . SVG Version: 6.00 Build 0)  -->
<svg version="1.1" id="Layer_1" xmlns="http://www.w3.org/2000/svg" xmlns:xlink="http://www.w3.org/1999/xlink" x="0px" y="0px"
	 viewBox="-409 211 140 140" style="enable-background:new -409 211 140 140;" xml:space="preserve">
<style type="text/css">
	.st0{fill:#1EA2D2;}
</style>
<path class="st0" d="M-322.4,263.9c-1,0.7-2,1.5-2.9,2.3c-6.9,5.7-13.8,11.5-20.7,17.3c-2.1,1.7-3.1,1.4-4.4-1
	c-0.8-1.6-1.4-3.4-2.6-4.7c-1.3-1.5-3.1-2.4-4.6-3.6c-5.1,0.6-7.6,4.7-5.5,9c2,4.1,4.4,8,6.2,12.1c2.5,5.9,7,5.7,11.1,2.3
	c8.7-7.3,17.6-14.4,26.4-21.7c1.5-1.2,3-2.3,4.3-3.7c2.1-2.3,2.2-5.5,0.4-7.5C-316.7,262.4-319.7,262.1-322.4,263.9z M-339,212
	c-38.1,0-69,30.9-69,69s30.9,69,69,69s69-30.9,69-69S-300.9,212-339,212z M-307.8,296.7c-7.4,13-16.9,24-29.2,32.5
	c-2,1.3-3.2,0.8-4.8-0.4c-16.3-11.4-27.6-26.8-34.8-45.1c-3.5-8.9-5.7-18.2-8.5-27.4c-0.7-2.2,0-3.2,2.3-3.8
	c5.8-1.5,8.7-5.4,8.3-11.5c-0.2-2.8,0.7-3.8,3.3-4.5c12.8-3.4,25.9-5.1,39.1-4.5c9,0.4,17.9,1.7,26.6,4.3c1.5,0.5,2.5,0.9,2.4,2.8
	c-0.4,8.1,1.8,11.1,9.5,13.5c0.3,0.1,0.7,0.4,1.1,0.6C-295.4,268.7-300.1,283.2-307.8,296.7z"/>
</svg>
