<?xml version="1.0" encoding="utf-8"?>
<!-- Generator: Adobe Illustrator 19.0.0, SVG Export Plug-In . SVG Version: 6.00 Build 0)  -->
<svg version="1.1" id="Layer_1" xmlns="http://www.w3.org/2000/svg" xmlns:xlink="http://www.w3.org/1999/xlink" x="0px" y="0px"
	 viewBox="0 0 140 140" style="enable-background:new 0 0 140 140;" xml:space="preserve">
<style type="text/css">
	.st0{fill:#DB3C40;}
</style>
<path id="XMLID_1_" class="st0" d="M68.7,89.7v-1.3h10.7c4.6,0,8.3-3.8,8.3-8.5v-9.5h1.4c2.5,0,4.6,2.2,4.6,4.7v14.6
	c0,2.5-2.1,4.7-4.6,4.7H72.9C70.4,94.4,68.7,92.2,68.7,89.7z M139,70c0,38.1-30.9,69-69,69c-38.1,0-69-30.9-69-69
	C1,31.9,31.9,1,70,1C108.1,1,139,31.9,139,70z M106.8,42.6c-1.1-1.4-2.3-2.6-3.5-3.9c8.4,14.3,9.4,16.9,10.9,29.3
	c3.4,28.6-21.8,51.7-48.8,48.6c-18.3-2.1-31-12.6-36.3-30.3c-5.4-17.9-0.4-33.4,13.7-45.7c9.7-8.5,21.4-10.8,33.9-10
	c1.9,0.1,3.2,0.5,3.3,2.6c4.6,0.1,4.6,0.2,7.8,3.4c0.3,0.3,0.7,0.6,1,0.6c3,0,6.1,0.1,9.1,0.1c0.1-1.5,0.2-2.9,0.3-3.9
	c3,0,5.6,0,8.6,0c0-1,0-2,0-3c-3,0-6,0-9,0c0-2,0-4,0-6c3,0,6,0,9,0c0-1,0-2,0-4c-3,0-5.7,0-8.6,0c-0.1-1-0.2-1.7-0.3-2.7
	c-3,0-5.8,0.1-8.7,0.3c-0.6,0-1.3,0.8-1.9,1.3c-1.3,1.2-2.5,2.4-3.7,3.7c-0.1-0.3-0.2-0.6-0.3-0.9c-1-0.5-2-0.9-3.6-1.6
	c0.6,3.2-0.9,4.1-3,4.3c-2.7,0.2-5.4,0.6-8.1,0.6c-28,0.9-49,24.7-46.6,52.7c2.4,27.4,26.7,47.3,53.9,43.7
	c18.7-2.4,32-12.7,38.8-30.2C121.5,74,118.6,57.4,106.8,42.6z M64.7,87.4V89c0,4.7,3.6,8.4,8.2,8.4h16.2c4.6,0,8.6-3.7,8.6-8.4V74.4
	c0-4.7-3.9-8.1-8.6-8.1h-1.4v-1.7c0-4.7-3.7-8.5-8.4-8.5c-1.1,0-1.9,0.9-1.9,2c0,1.1,0.8,2,1.9,2c2.5,0,4.4,2,4.4,4.5v14.6
	c0,2.5-1.8,4.1-4.3,4.1H63.1c-2.5,0-4.5-1.6-4.5-4.1v-0.9h10.5c4.6,0,8.5-4.2,8.5-8.9v-6.5c0-1.1-0.9-2-2-2c-1.1,0-2,0.9-2,2v6.5
	c0,2.5-2,4.9-4.5,4.9H53c-2.5,0-4.3-2.4-4.3-4.9V54.9c0-2.5,1.8-4.6,4.3-4.6h10.4c1.1,0,2-0.9,2-2c0-1.1-0.9-2-2-2H53
	c-4.6,0-8.3,3.9-8.3,8.6v14.6c0,4.7,3.7,8.9,8.3,8.9h1.7v0.9c0,4.7,3.9,8.1,8.5,8.1H64.7z M61,62.7l-3.3-4.2c-0.7-0.8-1.9-1-2.7-0.3
	c-0.8,0.7-1,1.9-0.3,2.8l5.3,6.7c0,0,0.1,0.1,0.1,0.1c0,0.1,0.1,0.1,0.2,0.2c0.1,0,0.1,0.1,0.2,0.1c0.1,0,0.1,0.1,0.2,0.1
	c0.1,0,0.1,0.1,0.2,0.1c0,0,0,0,0.1,0c0.1,0,0.1,0,0.2,0c0,0,0.1,0,0.1,0c0.1,0,0.3,0,0.4,0c0.2,0,0.4,0,0.6-0.1
	c0.1,0,0.1-0.1,0.2-0.1c0.1-0.1,0.3-0.1,0.4-0.2c0,0,0,0,0.1,0c0.1-0.1,0.2-0.2,0.3-0.3c0,0,0,0,0,0c0.1-0.1,0.2-0.3,0.3-0.5
	c0,0,0,0,0,0c0-0.1,3.4-9,13.3-17.2c0.8-0.7,0.9-1.9,0.3-2.8c-0.7-0.8-1.9-1-2.7-0.3C66.9,52.8,62.9,59.1,61,62.7z"/>
</svg>
