<?xml version="1.0" encoding="utf-8"?>
<!-- Generator: Adobe Illustrator 19.0.0, SVG Export Plug-In . SVG Version: 6.00 Build 0)  -->
<svg version="1.1" id="Layer_1" xmlns="http://www.w3.org/2000/svg" xmlns:xlink="http://www.w3.org/1999/xlink" x="0px" y="0px"
	 viewBox="-454 260.5 41 41" style="enable-background:new -454 260.5 41 41;" xml:space="preserve">
<style type="text/css">
	.st0{fill:#C4C4C4;}
</style>
<path id="XMLID_14_" class="st0" d="M-431.9,277h3.3l-0.4,4h-2.8v11h-5v-11h-2v-4h2v-1.9c0-3,1.7-5.1,5.2-5.1h2.8v4h-1.7
	c-1.4,0-1.5,0.4-1.5,1.3L-431.9,277z M-413.8,281c0,10.8-8.8,19.5-19.7,19.5c-10.9,0-19.8-8.7-19.8-19.5s8.8-19.5,19.7-19.5
	C-422.7,261.5-413.8,270.2-413.8,281z M-415.9,281c0-9.6-7.9-17.5-17.6-17.5c-9.8,0-17.7,7.9-17.7,17.5s7.9,17.5,17.6,17.5
	C-423.8,298.5-415.9,290.6-415.9,281z"/>
</svg>
