<?xml version="1.0" encoding="utf-8"?>
<!-- Generator: Adobe Illustrator 19.0.0, SVG Export Plug-In . SVG Version: 6.00 Build 0)  -->
<svg version="1.1" id="Layer_1" xmlns="http://www.w3.org/2000/svg" xmlns:xlink="http://www.w3.org/1999/xlink" x="0px" y="0px"
	 viewBox="-379.8 251.1 169 60" style="enable-background:new -379.8 251.1 169 60;" xml:space="preserve">
<style type="text/css">
	.st0{fill:#C4C4C4;}
</style>
<path class="st0" d="M-302.1,291.2c-2.7,0-5-0.9-6.7-2.8c-1.7-1.8-2.6-4.2-2.6-7.1c0-2.8,0.9-5.1,2.6-7s3.9-2.9,6.4-2.9
	c2.7,0,4.9,0.9,6.5,2.8s2.4,4.3,2.4,7.1v0.5h-15.8c0.1,2.1,0.8,3.9,2.1,5.3c1.3,1.4,3.1,2.1,5.2,2.1c2.5,0,4.5-0.9,6.1-2.6l1,1.3
	C-296.8,290.1-299.3,291.2-302.1,291.2z M-295.8,280.3c0-1.8-0.6-3.5-1.8-4.9c-1.2-1.5-2.9-2.2-5-2.2c-2,0-3.7,0.7-4.9,2.2
	c-1.2,1.5-1.8,3.1-1.9,5h13.6L-295.8,280.3L-295.8,280.3z M-278.5,290.7h-13.8V289l11.1-15.4h-11.1v-1.8h13.7v1.6l-11.3,15.5h11.4
	L-278.5,290.7L-278.5,290.7z M-255.3,287.9c-2,2-4.9,2.9-8.7,2.9s-6.7-1-8.7-2.9c-2-2-3-4.6-3-7.9v-15.6h5.6v15.4
	c0,1.9,0.5,3.4,1.6,4.5s2.6,1.7,4.5,1.7s3.4-0.6,4.5-1.7c1-1.1,1.6-2.6,1.6-4.5v-15.4h5.6V280C-252.3,283.3-253.3,286-255.3,287.9z
	 M-228.1,290.4h-6.4l-5.1-9.2h-4v9.2h-5.5v-26h12.1c2.7,0,4.8,0.8,6.4,2.3c1.6,1.6,2.4,3.6,2.4,6c0,2.1-0.6,3.9-1.7,5.2
	c-1.1,1.3-2.5,2.2-4,2.5L-228.1,290.4z M-237.8,276.3c1.1,0,2-0.3,2.8-1c0.7-0.6,1.1-1.5,1.1-2.6c0-1-0.4-1.9-1.1-2.5
	c-0.7-0.6-1.6-1-2.8-1h-5.8v7h5.8V276.3z M-220,290.9c-1.6,0-3.2-0.3-4.7-0.8s-2.7-1.2-3.7-2.1l2.1-3.6c0.7,0.7,1.7,1.3,3,1.8
	c1.2,0.5,2.4,0.8,3.5,0.8c2.1,0,3.1-0.7,3.1-2c0-0.5-0.3-0.9-0.8-1.1c-0.5-0.3-1.2-0.5-2.1-0.6c-0.8-0.1-1.7-0.3-2.7-0.6
	s-1.8-0.6-2.7-0.9c-0.8-0.4-1.5-0.9-2.1-1.7c-0.5-0.8-0.8-1.8-0.8-2.9c0-1.7,0.7-3.1,2.1-4.2c1.4-1.1,3.2-1.7,5.6-1.7
	c2.9,0,5.4,0.9,7.5,2.6l-2,3.5c-0.6-0.6-1.4-1.1-2.4-1.6c-1-0.4-2.1-0.6-3.1-0.6c-0.9,0-1.6,0.2-2.1,0.5s-0.8,0.8-0.8,1.3
	s0.4,0.9,1.1,1.1c0.8,0.3,1.7,0.5,2.8,0.7s2.2,0.5,3.3,0.8c1.1,0.4,2,1,2.8,1.9s1.1,2,1.1,3.4c0,1.8-0.7,3.2-2.2,4.3
	C-215.5,290.3-217.5,290.9-220,290.9z M-307.8,302.5h-0.4v-2.4c0-0.5-0.2-0.8-0.7-0.8c-0.2,0-0.3,0.1-0.5,0.2s-0.3,0.2-0.4,0.4v2.5
	h-0.4v-2.3c0-0.5-0.2-0.8-0.7-0.8c-0.2,0-0.3,0.1-0.5,0.2s-0.3,0.2-0.4,0.4v2.5h-0.4v-3.3h0.4v0.5c0.1-0.1,0.2-0.3,0.4-0.4
	c0.2-0.1,0.4-0.2,0.6-0.2s0.4,0.1,0.6,0.2c0.1,0.1,0.2,0.3,0.3,0.4c0.1-0.2,0.3-0.3,0.5-0.4s0.4-0.1,0.7-0.1c0.6,0,0.9,0.3,0.9,1
	C-307.8,300.1-307.8,302.5-307.8,302.5z M-305.6,302.5c-0.5,0-0.9-0.2-1.2-0.5c-0.3-0.3-0.5-0.7-0.5-1.2s0.1-0.9,0.4-1.2
	s0.7-0.5,1.1-0.5c0.5,0,0.9,0.2,1.1,0.5c0.3,0.3,0.4,0.7,0.4,1.2v0.1h-2.7c0,0.4,0.1,0.7,0.4,0.9c0.2,0.3,0.5,0.4,0.9,0.4
	s0.8-0.2,1.1-0.5l0.2,0.2C-304.8,302.4-305.1,302.5-305.6,302.5z M-304.5,300.6c0-0.3-0.1-0.6-0.3-0.9c-0.2-0.3-0.5-0.4-0.9-0.4
	s-0.6,0.1-0.9,0.4c-0.2,0.3-0.3,0.5-0.3,0.9H-304.5z M-300.8,302.5h-0.4V302c-0.1,0.2-0.3,0.3-0.5,0.4s-0.4,0.2-0.7,0.2
	c-0.4,0-0.8-0.2-1.1-0.5c-0.3-0.3-0.4-0.7-0.4-1.3c0-0.5,0.1-0.9,0.4-1.3c0.3-0.3,0.6-0.5,1.1-0.5c0.2,0,0.4,0.1,0.6,0.2
	s0.4,0.3,0.5,0.4v-1.8h0.4v4.7L-300.8,302.5L-300.8,302.5z M-302.3,302.2c0.2,0,0.4-0.1,0.6-0.2s0.3-0.3,0.4-0.4V300
	c-0.1-0.2-0.2-0.3-0.4-0.4c-0.2-0.1-0.4-0.2-0.6-0.2c-0.4,0-0.6,0.1-0.8,0.4c-0.2,0.3-0.3,0.6-0.3,1s0.1,0.7,0.3,1
	C-302.9,302.1-302.6,302.2-302.3,302.2z M-299.9,298.6c-0.1,0-0.1,0-0.2-0.1s-0.1-0.1-0.1-0.2s0-0.1,0.1-0.2c0.1,0,0.2,0,0.2,0
	c0.1,0,0.1,0,0.2,0.1s0.1,0.1,0.1,0.2s0,0.1-0.1,0.2C-299.8,298.6-299.8,298.6-299.9,298.6z M-299.8,302.5h-0.3v-3.3h0.4v3.3H-299.8
	z M-297.5,302.5c-0.5,0-0.9-0.2-1.1-0.5c-0.3-0.3-0.4-0.7-0.4-1.2s0.1-0.9,0.4-1.2c0.3-0.3,0.7-0.5,1.1-0.5c0.5,0,0.9,0.2,1.2,0.6
	l-0.2,0.2c-0.2-0.3-0.5-0.5-0.9-0.5s-0.7,0.1-0.9,0.4c-0.2,0.3-0.3,0.6-0.3,1s0.1,0.7,0.3,1c0.2,0.3,0.5,0.4,0.9,0.4
	s0.7-0.2,0.9-0.5l0.2,0.2C-296.6,302.3-297,302.5-297.5,302.5z M-293.5,302.5h-0.4v-0.4c-0.3,0.3-0.7,0.5-1.1,0.5
	c-0.3,0-0.6-0.1-0.8-0.3c-0.2-0.2-0.3-0.5-0.3-0.8s0.1-0.6,0.3-0.8c0.2-0.2,0.5-0.3,0.8-0.3c0.5,0,0.8,0.2,1.1,0.5v-0.8
	c0-0.2-0.1-0.4-0.2-0.6c-0.2-0.1-0.4-0.2-0.6-0.2c-0.4,0-0.8,0.2-1,0.5l-0.2-0.2c0.3-0.4,0.8-0.6,1.3-0.6c0.4,0,0.6,0.1,0.9,0.3
	c0.2,0.2,0.3,0.4,0.3,0.8L-293.5,302.5L-293.5,302.5z M-294.8,302.3c0.4,0,0.8-0.1,1-0.5v-0.7c-0.2-0.3-0.6-0.5-1-0.5
	c-0.3,0-0.5,0.1-0.6,0.2c-0.2,0.2-0.2,0.4-0.2,0.6s0.1,0.4,0.2,0.6S-295.1,302.3-294.8,302.3z M-292.4,302.5h-0.4V298h0.4V302.5z
	 M-288.8,302.5c-0.5,0-0.9-0.2-1.1-0.5c-0.3-0.3-0.4-0.7-0.4-1.2s0.1-0.9,0.4-1.2c0.3-0.3,0.7-0.5,1.1-0.5c0.5,0,0.9,0.2,1.2,0.6
	l-0.2,0.2c-0.2-0.3-0.5-0.5-0.9-0.5s-0.7,0.1-0.9,0.4c-0.2,0.3-0.3,0.6-0.3,1s0.1,0.7,0.3,1c0.2,0.3,0.5,0.4,0.9,0.4
	s0.7-0.2,0.9-0.5l0.2,0.2C-287.9,302.3-288.3,302.5-288.8,302.5z M-285.8,302.5c-0.5,0-0.8-0.2-1.1-0.5c-0.3-0.3-0.4-0.7-0.4-1.2
	s0.1-0.9,0.4-1.2c0.3-0.3,0.7-0.5,1.1-0.5c0.5,0,0.9,0.2,1.1,0.5c0.3,0.3,0.4,0.7,0.4,1.2s-0.1,0.9-0.4,1.2
	C-284.9,302.4-285.3,302.5-285.8,302.5z M-285.8,302.2c0.4,0,0.7-0.1,0.9-0.4c0.2-0.3,0.3-0.6,0.3-1s-0.1-0.7-0.3-1
	c-0.2-0.3-0.5-0.4-0.9-0.4s-0.7,0.1-0.9,0.4c-0.2,0.3-0.3,0.6-0.3,1s0.1,0.7,0.3,1C-286.4,302.1-286.1,302.2-285.8,302.2z
	 M-282.8,302.5c-0.5,0-1-0.2-1.3-0.5l0.2-0.3c0.1,0.1,0.3,0.3,0.4,0.3c0.2,0.1,0.4,0.1,0.6,0.1c0.3,0,0.5-0.1,0.6-0.2
	c0.2-0.1,0.2-0.3,0.2-0.5s-0.1-0.3-0.2-0.4s-0.3-0.2-0.5-0.2s-0.4-0.1-0.6-0.2s-0.4-0.2-0.5-0.3c-0.1-0.1-0.2-0.3-0.2-0.5
	c0-0.3,0.1-0.5,0.3-0.7c0.2-0.2,0.5-0.3,0.9-0.3c0.5,0,0.9,0.2,1.2,0.5l-0.2,0.3c-0.2-0.3-0.5-0.4-1-0.4c-0.2,0-0.4,0.1-0.6,0.2
	c-0.1,0.1-0.2,0.3-0.2,0.4c0,0.2,0.1,0.3,0.2,0.4s0.3,0.2,0.5,0.2s0.4,0.1,0.6,0.2s0.4,0.2,0.5,0.3c0.1,0.1,0.2,0.3,0.2,0.6
	s-0.1,0.5-0.3,0.7C-282,302.4-282.3,302.5-282.8,302.5z M-280.1,302.5c-0.4,0-0.6-0.2-0.6-0.7v-2.3h-0.5v-0.3h0.5v-0.9h0.4v0.9h0.7
	v0.3h-0.7v2.3c0,0.3,0.1,0.5,0.3,0.5c0.1,0,0.3-0.1,0.4-0.2l0.1,0.3C-279.8,302.5-279.9,302.5-280.1,302.5z M-276.5,302.5
	c-0.5,0-0.9-0.2-1.2-0.5c-0.3-0.3-0.5-0.7-0.5-1.2s0.2-0.9,0.5-1.2c0.3-0.3,0.7-0.5,1.2-0.5c0.6,0,1,0.2,1.3,0.6l-0.6,0.5
	c-0.2-0.2-0.4-0.4-0.7-0.4s-0.5,0.1-0.6,0.3c-0.2,0.2-0.2,0.4-0.2,0.7c0,0.3,0.1,0.5,0.2,0.7c0.2,0.2,0.4,0.3,0.6,0.3
	c0.3,0,0.5-0.1,0.7-0.4l0.6,0.5C-275.5,302.3-275.9,302.5-276.5,302.5z M-272.3,302c-0.3,0.3-0.7,0.5-1.3,0.5
	c-0.5,0-0.9-0.2-1.3-0.5c-0.3-0.3-0.5-0.7-0.5-1.2s0.2-0.9,0.5-1.2c0.3-0.3,0.7-0.5,1.3-0.5c0.5,0,0.9,0.2,1.3,0.5
	c0.3,0.3,0.5,0.7,0.5,1.2S-271.9,301.7-272.3,302z M-273.5,301.8c0.3,0,0.5-0.1,0.6-0.3c0.1-0.2,0.2-0.4,0.2-0.7
	c0-0.3-0.1-0.5-0.2-0.7s-0.4-0.3-0.6-0.3c-0.3,0-0.5,0.1-0.6,0.3s-0.2,0.4-0.2,0.7c0,0.3,0.1,0.5,0.2,0.7
	C-273.9,301.7-273.8,301.8-273.5,301.8z M-268.3,302.5h-0.9v-2c0-0.4-0.2-0.6-0.6-0.6c-0.3,0-0.5,0.1-0.7,0.4v2.2h-0.9v-3.3h0.9v0.4
	c0.1-0.1,0.3-0.3,0.5-0.4s0.4-0.1,0.7-0.1c0.4,0,0.6,0.1,0.8,0.3c0.2,0.2,0.3,0.4,0.3,0.8L-268.3,302.5L-268.3,302.5z M-266.8,302.5
	c-0.6,0-0.9-0.3-0.9-0.9v-1.7h-0.5v-0.8h0.5v-0.9h0.9v0.9h0.7v0.8h-0.7v1.5c0,0.1,0,0.2,0.1,0.3c0.1,0.1,0.1,0.1,0.2,0.1
	s0.2,0,0.3-0.1l0.2,0.7C-266.3,302.5-266.4,302.5-266.8,302.5z M-263,302.5h-0.9v-0.4c-0.2,0.3-0.6,0.4-1,0.4
	c-0.3,0-0.6-0.1-0.8-0.3c-0.2-0.2-0.3-0.5-0.3-0.8c0-0.4,0.1-0.6,0.3-0.8c0.2-0.2,0.5-0.3,0.8-0.3c0.5,0,0.8,0.1,1,0.4v-0.4
	c0-0.2-0.1-0.3-0.2-0.4s-0.3-0.1-0.5-0.1c-0.3,0-0.7,0.1-0.9,0.4l-0.3-0.6c0.4-0.3,0.9-0.5,1.4-0.5c0.4,0,0.8,0.1,1,0.3
	c0.3,0.2,0.4,0.5,0.4,1V302.5z M-264.6,301.9c0.3,0,0.6-0.1,0.7-0.3v-0.4c-0.1-0.2-0.4-0.3-0.7-0.3c-0.2,0-0.3,0-0.4,0.1
	s-0.2,0.2-0.2,0.4c0,0.1,0.1,0.3,0.2,0.4C-264.9,301.9-264.8,301.9-264.6,301.9z M-262.1,298.8c-0.1,0-0.3-0.1-0.4-0.2
	s-0.1-0.2-0.1-0.4c0-0.1,0-0.3,0.1-0.4s0.2-0.1,0.4-0.1c0.1,0,0.3,0,0.4,0.1s0.1,0.2,0.1,0.4c0,0.1,0,0.3-0.1,0.4
	C-261.8,298.8-262,298.8-262.1,298.8z M-261.8,302.5h-0.9v-3.3h0.9V302.5z M-258.1,302.5h-0.9v-2c0-0.4-0.2-0.6-0.6-0.6
	c-0.3,0-0.5,0.1-0.7,0.4v2.2h-0.9v-3.3h0.9v0.4c0.1-0.1,0.3-0.3,0.5-0.4s0.4-0.1,0.7-0.1c0.4,0,0.6,0.1,0.8,0.3
	c0.2,0.2,0.3,0.4,0.3,0.8L-258.1,302.5L-258.1,302.5L-258.1,302.5z M-252.6,302.5h-0.9v-2.1c0-0.4-0.2-0.5-0.5-0.5
	c-0.1,0-0.3,0-0.4,0.1c-0.1,0.1-0.2,0.2-0.3,0.3v2.2h-0.9v-2.1c0-0.4-0.2-0.5-0.5-0.5s-0.5,0.1-0.7,0.4v2.2h-0.9v-3.3h0.9v0.4
	c0.1-0.1,0.2-0.2,0.4-0.3s0.4-0.2,0.6-0.2c0.5,0,0.8,0.2,0.9,0.6c0.1-0.2,0.3-0.3,0.5-0.4s0.4-0.2,0.7-0.2s0.5,0.1,0.7,0.2
	c0.2,0.2,0.3,0.4,0.3,0.7L-252.6,302.5L-252.6,302.5z M-250.6,302.5c-0.5,0-0.9-0.2-1.3-0.5c-0.3-0.3-0.5-0.7-0.5-1.3
	c0-0.5,0.2-0.9,0.5-1.2c0.3-0.3,0.7-0.5,1.2-0.5s0.9,0.2,1.2,0.5s0.5,0.8,0.5,1.3v0.3h-2.4c0,0.2,0.1,0.4,0.3,0.5s0.4,0.2,0.6,0.2
	c0.1,0,0.3,0,0.5-0.1s0.3-0.1,0.4-0.2l0.4,0.6C-249.6,302.4-250,302.5-250.6,302.5z M-249.8,300.5c0-0.2-0.1-0.4-0.2-0.5
	c-0.1-0.1-0.3-0.2-0.6-0.2c-0.2,0-0.4,0.1-0.6,0.2c-0.1,0.1-0.2,0.3-0.2,0.5H-249.8z M-245.6,302.5h-0.9v-2c0-0.4-0.2-0.6-0.6-0.6
	c-0.3,0-0.5,0.1-0.7,0.4v2.2h-0.9v-3.3h0.9v0.4c0.1-0.1,0.3-0.3,0.5-0.4s0.4-0.1,0.7-0.1c0.4,0,0.6,0.1,0.8,0.3
	c0.2,0.2,0.3,0.4,0.3,0.8v2.3L-245.6,302.5L-245.6,302.5z M-244,302.5c-0.6,0-0.9-0.3-0.9-0.9v-1.7h-0.5v-0.8h0.5v-0.9h0.9v0.9h0.7
	v0.8h-0.7v1.5c0,0.1,0,0.2,0.1,0.3c0.1,0.1,0.1,0.1,0.2,0.1c0.1,0,0.2,0,0.3-0.1l0.2,0.7C-243.5,302.5-243.7,302.5-244,302.5z
	 M-236.8,302.5h-0.9v-2.1c0-0.4-0.2-0.5-0.5-0.5c-0.1,0-0.3,0-0.4,0.1c-0.1,0.1-0.2,0.2-0.3,0.3v2.2h-0.9v-2.1
	c0-0.4-0.2-0.5-0.5-0.5s-0.5,0.1-0.7,0.4v2.2h-0.9v-3.3h0.9v0.4c0.1-0.1,0.2-0.2,0.4-0.3s0.4-0.2,0.6-0.2c0.5,0,0.8,0.2,0.9,0.6
	c0.1-0.2,0.3-0.3,0.5-0.4s0.4-0.2,0.7-0.2s0.5,0.1,0.7,0.2c0.2,0.2,0.3,0.4,0.3,0.7L-236.8,302.5L-236.8,302.5z M-233.5,302.5h-0.9
	v-0.4c-0.2,0.3-0.6,0.4-1,0.4c-0.3,0-0.6-0.1-0.8-0.3s-0.3-0.5-0.3-0.8c0-0.4,0.1-0.6,0.3-0.8c0.2-0.2,0.5-0.3,0.8-0.3
	c0.5,0,0.8,0.1,1,0.4v-0.4c0-0.2-0.1-0.3-0.2-0.4c-0.1-0.1-0.3-0.1-0.5-0.1c-0.3,0-0.7,0.1-0.9,0.4l-0.3-0.6
	c0.4-0.3,0.9-0.5,1.4-0.5c0.4,0,0.8,0.1,1,0.3c0.3,0.2,0.4,0.5,0.4,1V302.5z M-235,301.9c0.3,0,0.6-0.1,0.7-0.3v-0.4
	c-0.1-0.2-0.4-0.3-0.7-0.3c-0.2,0-0.3,0-0.4,0.1c-0.1,0.1-0.2,0.2-0.2,0.4c0,0.1,0.1,0.3,0.2,0.4
	C-235.4,301.9-235.2,301.9-235,301.9z M-229.8,302.5h-0.9v-0.4c-0.3,0.3-0.6,0.5-1,0.5s-0.8-0.2-1-0.5c-0.3-0.3-0.4-0.7-0.4-1.3
	c0-0.5,0.1-0.9,0.4-1.3c0.3-0.3,0.6-0.5,1-0.5s0.8,0.2,1,0.5v-1.7h0.9V302.5z M-231.4,301.8c0.1,0,0.3,0,0.4-0.1
	c0.1-0.1,0.2-0.2,0.3-0.3v-1.2c-0.1-0.1-0.2-0.2-0.3-0.3c-0.1-0.1-0.3-0.1-0.4-0.1c-0.2,0-0.5,0.1-0.6,0.3c-0.2,0.2-0.2,0.4-0.2,0.7
	c0,0.3,0.1,0.5,0.2,0.7C-231.9,301.7-231.7,301.8-231.4,301.8z M-227.8,302.5c-0.5,0-0.9-0.2-1.3-0.5c-0.3-0.3-0.5-0.7-0.5-1.3
	c0-0.5,0.2-0.9,0.5-1.2c0.3-0.3,0.7-0.5,1.2-0.5s0.9,0.2,1.2,0.5s0.5,0.8,0.5,1.3v0.3h-2.4c0,0.2,0.1,0.4,0.3,0.5s0.4,0.2,0.6,0.2
	c0.1,0,0.3,0,0.5-0.1s0.3-0.1,0.4-0.2l0.4,0.6C-226.8,302.4-227.2,302.5-227.8,302.5z M-227,300.5c0-0.2-0.1-0.4-0.2-0.5
	c-0.1-0.1-0.3-0.2-0.6-0.2c-0.2,0-0.4,0.1-0.6,0.2c-0.1,0.1-0.2,0.3-0.2,0.5H-227z M-223,302.5c-0.5,0-0.9-0.2-1.3-0.5
	c-0.3-0.3-0.5-0.7-0.5-1.3c0-0.5,0.2-0.9,0.5-1.2c0.3-0.3,0.7-0.5,1.2-0.5s0.9,0.2,1.2,0.5s0.5,0.8,0.5,1.3v0.3h-2.4
	c0,0.2,0.1,0.4,0.3,0.5s0.4,0.2,0.6,0.2c0.1,0,0.3,0,0.5-0.1s0.3-0.1,0.4-0.2l0.4,0.6C-221.9,302.4-222.4,302.5-223,302.5z
	 M-222.2,300.5c0-0.2-0.1-0.4-0.2-0.5c-0.1-0.1-0.3-0.2-0.6-0.2c-0.2,0-0.4,0.1-0.6,0.2c-0.1,0.1-0.2,0.3-0.2,0.5H-222.2z
	 M-218.3,302.5h-0.9v-0.4c-0.2,0.3-0.6,0.4-1,0.4c-0.3,0-0.6-0.1-0.8-0.3s-0.3-0.5-0.3-0.8c0-0.4,0.1-0.6,0.3-0.8
	c0.2-0.2,0.5-0.3,0.8-0.3c0.5,0,0.8,0.1,1,0.4v-0.4c0-0.2-0.1-0.3-0.2-0.4c-0.1-0.1-0.3-0.1-0.5-0.1c-0.3,0-0.7,0.1-0.9,0.4
	l-0.3-0.6c0.4-0.3,0.9-0.5,1.4-0.5c0.4,0,0.8,0.1,1,0.3c0.3,0.2,0.4,0.5,0.4,1V302.5z M-219.8,301.9c0.3,0,0.6-0.1,0.7-0.3v-0.4
	c-0.1-0.2-0.4-0.3-0.7-0.3c-0.2,0-0.3,0-0.4,0.1c-0.1,0.1-0.2,0.2-0.2,0.4c0,0.1,0.1,0.3,0.2,0.4
	C-220.1,301.9-220,301.9-219.8,301.9z M-216.6,302.5c-0.3,0-0.6,0-0.8-0.1c-0.3-0.1-0.5-0.2-0.6-0.4l0.4-0.6
	c0.1,0.1,0.3,0.2,0.5,0.3s0.4,0.1,0.6,0.1c0.4,0,0.5-0.1,0.5-0.3c0-0.1,0-0.1-0.1-0.2s-0.2-0.1-0.4-0.1c-0.1,0-0.3-0.1-0.5-0.1
	s-0.3-0.1-0.5-0.2c-0.1-0.1-0.3-0.2-0.4-0.3c-0.1-0.1-0.1-0.3-0.1-0.5c0-0.3,0.1-0.5,0.4-0.7c0.2-0.2,0.6-0.3,1-0.3
	c0.5,0,0.9,0.1,1.3,0.4l-0.3,0.6c-0.1-0.1-0.2-0.2-0.4-0.3s-0.4-0.1-0.5-0.1c-0.2,0-0.3,0-0.4,0.1c-0.1,0.1-0.1,0.1-0.1,0.2
	s0.1,0.2,0.2,0.2c0.1,0,0.3,0.1,0.5,0.1s0.4,0.1,0.6,0.1c0.2,0.1,0.4,0.2,0.5,0.3c0.1,0.2,0.2,0.4,0.2,0.6c0,0.3-0.1,0.6-0.4,0.8
	C-215.8,302.4-216.1,302.5-216.6,302.5z M-215,303.7l0.1-0.8c0.1,0,0.2,0.1,0.3,0.1c0.2,0,0.4-0.1,0.5-0.2l0.1-0.3l-1.3-3.3h0.9
	l0.9,2.3l0.9-2.3h0.9l-1.5,3.8c-0.1,0.3-0.3,0.5-0.5,0.6s-0.5,0.2-0.8,0.2C-214.7,303.8-214.8,303.8-215,303.7z M-356.3,252.1
	c-1.3,0-2.5,0.5-3.4,1.4s-1.4,2.1-1.4,3.5v12.7h-12.8c-1.3,0-2.5,0.5-3.4,1.4s-1.4,2.1-1.4,3.4c0,2.7,2.2,4.9,4.9,4.9h17.4
	c1.3,0,2.5-0.5,3.4-1.4l0.1-0.1c0.9-0.9,1.4-2.1,1.4-3.4V257c0-1.3-0.5-2.5-1.4-3.5C-353.8,252.6-354.9,252.1-356.3,252.1z
	 M-342.5,309.9c1.3,0,2.5-0.5,3.4-1.4s1.4-2.1,1.4-3.5v-12.7h12.7c1.3,0,2.5-0.5,3.4-1.4s1.4-2.1,1.4-3.4c0-2.7-2.2-4.9-4.9-4.9
	h-17.4c-1.3,0-2.5,0.5-3.4,1.4h-0.1c-0.9,0.9-1.4,2.1-1.4,3.4v17.5c0,1.3,0.5,2.5,1.4,3.5C-345,309.4-343.8,309.9-342.5,309.9z
	 M-378.8,287.5c0,1.3,0.5,2.5,1.4,3.5c0.9,0.9,2.1,1.4,3.4,1.4h12.7v12.7c0,1.3,0.5,2.5,1.4,3.5c0.9,0.9,2.1,1.4,3.4,1.4
	c2.7,0,4.9-2.2,4.9-4.9v-17.5c0-1.3-0.5-2.5-1.4-3.5h-0.1c-0.9-0.9-2.1-1.4-3.4-1.4h-17.4c-1.3,0-2.5,0.5-3.4,1.4
	C-378.3,285-378.8,286.2-378.8,287.5z M-320,274.5c0-1.3-0.5-2.5-1.4-3.5c-0.9-0.9-2.1-1.4-3.4-1.4h-12.7v-12.7
	c0-1.3-0.5-2.5-1.4-3.4s-2.1-1.4-3.4-1.4c-2.7,0-4.9,2.2-4.9,4.9v17.5c0,1.3,0.5,2.5,1.4,3.5l0.1,0.1c0.9,0.9,2.1,1.4,3.4,1.4h17.4
	c1.3,0,2.5-0.5,3.4-1.4C-320.5,277-320,275.8-320,274.5z"/>
</svg>
